<mxfile host="app.diagrams.net" modified="2021-12-15T05:19:10.905Z" agent="5.0 (Windows NT 10.0; Win64; x64) AppleWebKit/537.36 (KHTML, like Gecko) Chrome/96.0.4664.93 Safari/537.36" etag="TstJuV1X6bVIv6g20dUc" version="15.9.4" type="github">
  <diagram id="G8VuchcI1mCE1RwJLLVs" name="第 1 页">
    <mxGraphModel dx="1550" dy="1576" grid="1" gridSize="10" guides="1" tooltips="1" connect="1" arrows="1" fold="1" page="1" pageScale="1" pageWidth="827" pageHeight="1169" math="0" shadow="0">
      <root>
        <mxCell id="0" />
        <mxCell id="1" parent="0" />
        <mxCell id="2bjuvnZJrYzHLu6adjYs-180" value="" style="rounded=0;whiteSpace=wrap;html=1;fontSize=12;" vertex="1" parent="1">
          <mxGeometry x="-276" y="635" width="296" height="160" as="geometry" />
        </mxCell>
        <mxCell id="2bjuvnZJrYzHLu6adjYs-181" value="&lt;font style=&quot;font-size: 18px&quot;&gt;&lt;b&gt;&lt;i&gt;service&lt;/i&gt;&lt;/b&gt;&lt;/font&gt;" style="text;html=1;strokeColor=none;fillColor=none;align=center;verticalAlign=middle;whiteSpace=wrap;rounded=0;fontSize=12;" vertex="1" parent="1">
          <mxGeometry x="-205" y="635" width="60" height="30" as="geometry" />
        </mxCell>
        <mxCell id="2bjuvnZJrYzHLu6adjYs-176" value="" style="rounded=0;whiteSpace=wrap;html=1;fontSize=12;" vertex="1" parent="1">
          <mxGeometry x="-668" y="630" width="350" height="170" as="geometry" />
        </mxCell>
        <mxCell id="2bjuvnZJrYzHLu6adjYs-74" value="" style="rounded=0;whiteSpace=wrap;html=1;fontSize=12;" vertex="1" parent="1">
          <mxGeometry x="-571.5" y="210" width="200" height="90" as="geometry" />
        </mxCell>
        <mxCell id="2bjuvnZJrYzHLu6adjYs-69" value="&amp;nbsp;" style="rounded=0;whiteSpace=wrap;html=1;fontSize=12;" vertex="1" parent="1">
          <mxGeometry x="-268.75" y="190" width="1061.5" height="410" as="geometry" />
        </mxCell>
        <mxCell id="2bjuvnZJrYzHLu6adjYs-54" value="" style="rounded=0;whiteSpace=wrap;html=1;fontSize=19;" vertex="1" parent="1">
          <mxGeometry x="-47.25" y="240" width="383" height="155" as="geometry" />
        </mxCell>
        <mxCell id="2bjuvnZJrYzHLu6adjYs-48" value="" style="rounded=0;whiteSpace=wrap;html=1;fontSize=12;" vertex="1" parent="1">
          <mxGeometry x="-258.75" y="240" width="190" height="180" as="geometry" />
        </mxCell>
        <mxCell id="2bjuvnZJrYzHLu6adjYs-35" value="" style="rounded=0;whiteSpace=wrap;html=1;fontSize=12;" vertex="1" parent="1">
          <mxGeometry x="-670" y="820" width="1147" height="520" as="geometry" />
        </mxCell>
        <mxCell id="2bjuvnZJrYzHLu6adjYs-25" value="" style="rounded=0;whiteSpace=wrap;html=1;fontSize=16;" vertex="1" parent="1">
          <mxGeometry x="-336" y="880" width="790" height="440" as="geometry" />
        </mxCell>
        <mxCell id="2bjuvnZJrYzHLu6adjYs-24" value="" style="rounded=0;whiteSpace=wrap;html=1;fontSize=16;" vertex="1" parent="1">
          <mxGeometry x="-661.5" y="975" width="300" height="200" as="geometry" />
        </mxCell>
        <mxCell id="lmvJmJvYwdmE9mu-P-zr-45" style="edgeStyle=orthogonalEdgeStyle;rounded=0;orthogonalLoop=1;jettySize=auto;html=1;exitX=1;exitY=0.5;exitDx=0;exitDy=0;fontSize=14;fontColor=#000000;strokeColor=#000000;" parent="1" source="lmvJmJvYwdmE9mu-P-zr-33" target="lmvJmJvYwdmE9mu-P-zr-39" edge="1">
          <mxGeometry relative="1" as="geometry">
            <Array as="points">
              <mxPoint x="-133" y="-37" />
            </Array>
          </mxGeometry>
        </mxCell>
        <mxCell id="lmvJmJvYwdmE9mu-P-zr-33" value="" style="rounded=0;whiteSpace=wrap;html=1;fontSize=11;" parent="1" vertex="1">
          <mxGeometry x="-343" y="-167" width="210" height="250" as="geometry" />
        </mxCell>
        <mxCell id="lmvJmJvYwdmE9mu-P-zr-18" value="" style="rounded=1;whiteSpace=wrap;html=1;dashed=1;fillColor=#f5f5f5;fontColor=#333333;strokeColor=#666666;" parent="1" vertex="1">
          <mxGeometry x="-413" y="-324" width="260" height="97" as="geometry" />
        </mxCell>
        <mxCell id="lmvJmJvYwdmE9mu-P-zr-1" value="数据采集" style="rounded=0;whiteSpace=wrap;html=1;" parent="1" vertex="1">
          <mxGeometry x="-403" y="-374.5" width="90" height="30" as="geometry" />
        </mxCell>
        <mxCell id="lmvJmJvYwdmE9mu-P-zr-2" value="" style="shape=curlyBracket;whiteSpace=wrap;html=1;rounded=1;" parent="1" vertex="1">
          <mxGeometry x="-313" y="-387" width="20" height="55" as="geometry" />
        </mxCell>
        <mxCell id="lmvJmJvYwdmE9mu-P-zr-3" value="1.晚点罚款基础数据采集；&lt;br&gt;&lt;br&gt;2.早到奖励基础数据采集；" style="text;html=1;strokeColor=none;fillColor=none;align=center;verticalAlign=middle;whiteSpace=wrap;rounded=0;" parent="1" vertex="1">
          <mxGeometry x="-303" y="-384.5" width="170" height="50" as="geometry" />
        </mxCell>
        <mxCell id="lmvJmJvYwdmE9mu-P-zr-4" value="罚款金额计算" style="rounded=0;whiteSpace=wrap;html=1;" parent="1" vertex="1">
          <mxGeometry x="-403" y="-307" width="90" height="30" as="geometry" />
        </mxCell>
        <mxCell id="lmvJmJvYwdmE9mu-P-zr-5" value="" style="shape=curlyBracket;whiteSpace=wrap;html=1;rounded=1;" parent="1" vertex="1">
          <mxGeometry x="-313" y="-319.5" width="20" height="55" as="geometry" />
        </mxCell>
        <mxCell id="lmvJmJvYwdmE9mu-P-zr-6" value="1.晚点罚款数据金额计算；&lt;br&gt;&lt;br&gt;2.早到奖励数据金额计算；" style="text;html=1;strokeColor=none;fillColor=none;align=center;verticalAlign=middle;whiteSpace=wrap;rounded=0;" parent="1" vertex="1">
          <mxGeometry x="-293" y="-317" width="150" height="50" as="geometry" />
        </mxCell>
        <mxCell id="lmvJmJvYwdmE9mu-P-zr-7" value="" style="shape=curlyBracket;whiteSpace=wrap;html=1;rounded=1;" parent="1" vertex="1">
          <mxGeometry x="-433" y="-374.5" width="20" height="97" as="geometry" />
        </mxCell>
        <mxCell id="lmvJmJvYwdmE9mu-P-zr-8" value="ZSS定时任务" style="text;html=1;strokeColor=none;fillColor=none;align=center;verticalAlign=middle;whiteSpace=wrap;rounded=0;" parent="1" vertex="1">
          <mxGeometry x="-513" y="-341" width="80" height="30" as="geometry" />
        </mxCell>
        <mxCell id="lmvJmJvYwdmE9mu-P-zr-9" value="" style="shape=curlyBracket;whiteSpace=wrap;html=1;rounded=1;flipH=1;" parent="1" vertex="1">
          <mxGeometry x="-143" y="-387" width="20" height="120" as="geometry" />
        </mxCell>
        <mxCell id="lmvJmJvYwdmE9mu-P-zr-12" value="" style="edgeStyle=orthogonalEdgeStyle;rounded=0;orthogonalLoop=1;jettySize=auto;html=1;" parent="1" source="lmvJmJvYwdmE9mu-P-zr-10" target="lmvJmJvYwdmE9mu-P-zr-11" edge="1">
          <mxGeometry relative="1" as="geometry" />
        </mxCell>
        <mxCell id="lmvJmJvYwdmE9mu-P-zr-10" value="落库&lt;br&gt;(表结构延用)" style="text;html=1;strokeColor=none;fillColor=none;align=center;verticalAlign=middle;whiteSpace=wrap;rounded=0;" parent="1" vertex="1">
          <mxGeometry x="-123" y="-344.5" width="96" height="30" as="geometry" />
        </mxCell>
        <mxCell id="lmvJmJvYwdmE9mu-P-zr-11" value="&lt;span&gt;MySQL&lt;/span&gt;" style="shape=cylinder3;whiteSpace=wrap;html=1;boundedLbl=1;backgroundOutline=1;size=15;" parent="1" vertex="1">
          <mxGeometry x="7" y="-370" width="60" height="80" as="geometry" />
        </mxCell>
        <mxCell id="lmvJmJvYwdmE9mu-P-zr-13" value="" style="shape=curlyBracket;whiteSpace=wrap;html=1;rounded=1;" parent="1" vertex="1">
          <mxGeometry x="67" y="-389.5" width="20" height="120" as="geometry" />
        </mxCell>
        <mxCell id="lmvJmJvYwdmE9mu-P-zr-14" value="晚点罚款信息表&lt;br&gt;&lt;br&gt;&lt;br&gt;&lt;br&gt;&lt;br&gt;&lt;br&gt;&lt;br&gt;分段线路信息表" style="text;html=1;strokeColor=none;fillColor=none;align=center;verticalAlign=middle;whiteSpace=wrap;rounded=0;" parent="1" vertex="1">
          <mxGeometry x="67" y="-360" width="150" height="67" as="geometry" />
        </mxCell>
        <mxCell id="lmvJmJvYwdmE9mu-P-zr-19" value="根据新规则计算" style="text;html=1;strokeColor=none;fillColor=none;align=center;verticalAlign=middle;whiteSpace=wrap;rounded=0;dashed=1;fontStyle=3;fontSize=14;" parent="1" vertex="1">
          <mxGeometry x="-353" y="-247" width="140" height="20" as="geometry" />
        </mxCell>
        <mxCell id="lmvJmJvYwdmE9mu-P-zr-21" value="" style="shape=curlyBracket;whiteSpace=wrap;html=1;rounded=1;fontSize=14;size=0.5;" parent="1" vertex="1">
          <mxGeometry x="197" y="-400" width="10" height="40" as="geometry" />
        </mxCell>
        <mxCell id="lmvJmJvYwdmE9mu-P-zr-22" value="&lt;font style=&quot;font-size: 11px&quot;&gt;1.新增字段标识是罚款/奖金&lt;/font&gt;" style="text;html=1;strokeColor=none;fillColor=none;align=center;verticalAlign=middle;whiteSpace=wrap;rounded=0;fontSize=14;" parent="1" vertex="1">
          <mxGeometry x="197" y="-400" width="170" height="38" as="geometry" />
        </mxCell>
        <mxCell id="lmvJmJvYwdmE9mu-P-zr-23" value="申述" style="rounded=0;whiteSpace=wrap;html=1;fontSize=11;" parent="1" vertex="1">
          <mxGeometry x="-318" y="-137" width="65" height="30" as="geometry" />
        </mxCell>
        <mxCell id="lmvJmJvYwdmE9mu-P-zr-24" value="处理" style="rounded=0;whiteSpace=wrap;html=1;fontSize=11;" parent="1" vertex="1">
          <mxGeometry x="-318" y="-77" width="65" height="30" as="geometry" />
        </mxCell>
        <mxCell id="lmvJmJvYwdmE9mu-P-zr-25" value="调整" style="rounded=0;whiteSpace=wrap;html=1;fontSize=11;" parent="1" vertex="1">
          <mxGeometry x="-318" y="-17" width="65" height="30" as="geometry" />
        </mxCell>
        <mxCell id="lmvJmJvYwdmE9mu-P-zr-26" value="查看详情" style="rounded=0;whiteSpace=wrap;html=1;fontSize=11;" parent="1" vertex="1">
          <mxGeometry x="-318" y="43" width="65" height="30" as="geometry" />
        </mxCell>
        <mxCell id="lmvJmJvYwdmE9mu-P-zr-27" value="查询" style="rounded=0;whiteSpace=wrap;html=1;fontSize=11;" parent="1" vertex="1">
          <mxGeometry x="-228" y="-107" width="65" height="30" as="geometry" />
        </mxCell>
        <mxCell id="lmvJmJvYwdmE9mu-P-zr-28" value="缓行路段" style="rounded=0;whiteSpace=wrap;html=1;fontSize=11;" parent="1" vertex="1">
          <mxGeometry x="-228" y="-47" width="65" height="30" as="geometry" />
        </mxCell>
        <mxCell id="lmvJmJvYwdmE9mu-P-zr-29" value="减免时长" style="rounded=0;whiteSpace=wrap;html=1;fontSize=11;" parent="1" vertex="1">
          <mxGeometry x="-228" y="13" width="65" height="30" as="geometry" />
        </mxCell>
        <mxCell id="lmvJmJvYwdmE9mu-P-zr-32" style="edgeStyle=orthogonalEdgeStyle;rounded=0;orthogonalLoop=1;jettySize=auto;html=1;exitX=0.5;exitY=0;exitDx=0;exitDy=0;entryX=0.5;entryY=1;entryDx=0;entryDy=0;fontSize=11;dashed=1;strokeColor=#FF3333;" parent="1" source="lmvJmJvYwdmE9mu-P-zr-30" target="lmvJmJvYwdmE9mu-P-zr-29" edge="1">
          <mxGeometry relative="1" as="geometry" />
        </mxCell>
        <mxCell id="lmvJmJvYwdmE9mu-P-zr-30" value="根据减免时长重新计算罚款" style="rounded=1;whiteSpace=wrap;html=1;arcSize=40;fontColor=#000000;fillColor=#ffffc0;strokeColor=#ff0000;fontSize=11;fontStyle=2" parent="1" vertex="1">
          <mxGeometry x="-285.5" y="90" width="180" height="25" as="geometry" />
        </mxCell>
        <mxCell id="lmvJmJvYwdmE9mu-P-zr-35" style="edgeStyle=orthogonalEdgeStyle;rounded=0;orthogonalLoop=1;jettySize=auto;html=1;entryX=0;entryY=0.5;entryDx=0;entryDy=0;fontSize=11;strokeColor=#000000;fontColor=#000000;" parent="1" source="lmvJmJvYwdmE9mu-P-zr-34" target="lmvJmJvYwdmE9mu-P-zr-33" edge="1">
          <mxGeometry relative="1" as="geometry" />
        </mxCell>
        <mxCell id="lmvJmJvYwdmE9mu-P-zr-34" value="调用者" style="shape=umlActor;verticalLabelPosition=bottom;verticalAlign=top;html=1;fontSize=11;" parent="1" vertex="1">
          <mxGeometry x="-483" y="-72" width="30" height="60" as="geometry" />
        </mxCell>
        <mxCell id="lmvJmJvYwdmE9mu-P-zr-37" value="&lt;font style=&quot;font-size: 14px&quot;&gt;&lt;b&gt;&lt;i&gt;interface&lt;/i&gt;&lt;/b&gt;&lt;/font&gt;" style="text;html=1;strokeColor=none;fillColor=none;align=center;verticalAlign=middle;whiteSpace=wrap;rounded=0;fontSize=11;fontColor=#000000;" parent="1" vertex="1">
          <mxGeometry x="-288" y="-157" width="95" height="10" as="geometry" />
        </mxCell>
        <mxCell id="lmvJmJvYwdmE9mu-P-zr-38" value="" style="edgeStyle=orthogonalEdgeStyle;rounded=0;orthogonalLoop=1;jettySize=auto;html=1;" parent="1" source="lmvJmJvYwdmE9mu-P-zr-39" target="lmvJmJvYwdmE9mu-P-zr-40" edge="1">
          <mxGeometry relative="1" as="geometry" />
        </mxCell>
        <mxCell id="lmvJmJvYwdmE9mu-P-zr-39" value="落库&lt;br&gt;(表结构延用)" style="text;html=1;strokeColor=none;fillColor=none;align=center;verticalAlign=middle;whiteSpace=wrap;rounded=0;" parent="1" vertex="1">
          <mxGeometry x="-93" y="-51.5" width="96" height="30" as="geometry" />
        </mxCell>
        <mxCell id="lmvJmJvYwdmE9mu-P-zr-40" value="&lt;span&gt;MySQL&lt;/span&gt;" style="shape=cylinder3;whiteSpace=wrap;html=1;boundedLbl=1;backgroundOutline=1;size=15;" parent="1" vertex="1">
          <mxGeometry x="37" y="-77" width="60" height="80" as="geometry" />
        </mxCell>
        <mxCell id="lmvJmJvYwdmE9mu-P-zr-41" value="" style="shape=curlyBracket;whiteSpace=wrap;html=1;rounded=1;" parent="1" vertex="1">
          <mxGeometry x="97" y="-71.25" width="30" height="69.5" as="geometry" />
        </mxCell>
        <mxCell id="lmvJmJvYwdmE9mu-P-zr-42" value="晚点罚款信息表&lt;br&gt;&lt;br&gt;&lt;br&gt;&lt;br&gt;" style="text;html=1;strokeColor=none;fillColor=none;align=center;verticalAlign=middle;whiteSpace=wrap;rounded=0;" parent="1" vertex="1">
          <mxGeometry x="97" y="-47" width="150" height="67" as="geometry" />
        </mxCell>
        <mxCell id="lmvJmJvYwdmE9mu-P-zr-43" value="" style="shape=curlyBracket;whiteSpace=wrap;html=1;rounded=1;fontSize=14;size=0.5;" parent="1" vertex="1">
          <mxGeometry x="217" y="-56.5" width="10" height="40" as="geometry" />
        </mxCell>
        <mxCell id="lmvJmJvYwdmE9mu-P-zr-44" value="&lt;font style=&quot;font-size: 11px&quot;&gt;1.新增字段标识是罚款/奖金&lt;/font&gt;" style="text;html=1;strokeColor=none;fillColor=none;align=center;verticalAlign=middle;whiteSpace=wrap;rounded=0;fontSize=14;" parent="1" vertex="1">
          <mxGeometry x="217" y="-56.5" width="170" height="38" as="geometry" />
        </mxCell>
        <mxCell id="lmvJmJvYwdmE9mu-P-zr-52" style="edgeStyle=orthogonalEdgeStyle;rounded=0;orthogonalLoop=1;jettySize=auto;html=1;exitX=0.5;exitY=1;exitDx=0;exitDy=0;entryX=0;entryY=0.5;entryDx=0;entryDy=0;fontSize=11;dashed=1;strokeColor=#FF3333;" parent="1" source="lmvJmJvYwdmE9mu-P-zr-53" target="lmvJmJvYwdmE9mu-P-zr-23" edge="1">
          <mxGeometry relative="1" as="geometry">
            <mxPoint x="-218" y="-207.0000000000001" as="targetPoint" />
          </mxGeometry>
        </mxCell>
        <mxCell id="lmvJmJvYwdmE9mu-P-zr-53" value="1.二次申诉（是否保留？）&lt;br&gt;2.是否需要配置系统申诉判断规则？&lt;br&gt;3.申诉/处理/调整三个状态之间的变更关系（什么情况下闭环）。" style="rounded=1;whiteSpace=wrap;html=1;arcSize=40;fontColor=#000000;fillColor=#ffffc0;strokeColor=#ff0000;fontSize=11;fontStyle=2;align=left;spacingLeft=8;" parent="1" vertex="1">
          <mxGeometry x="-713" y="-227" width="240" height="80" as="geometry" />
        </mxCell>
        <mxCell id="2bjuvnZJrYzHLu6adjYs-32" value="" style="edgeStyle=orthogonalEdgeStyle;rounded=0;orthogonalLoop=1;jettySize=auto;html=1;fontSize=12;endArrow=none;endFill=0;" edge="1" parent="1" source="2bjuvnZJrYzHLu6adjYs-1" target="2bjuvnZJrYzHLu6adjYs-2">
          <mxGeometry relative="1" as="geometry" />
        </mxCell>
        <mxCell id="2bjuvnZJrYzHLu6adjYs-1" value="晚点罚款表" style="rounded=0;whiteSpace=wrap;html=1;" vertex="1" parent="1">
          <mxGeometry x="-651.5" y="1035" width="100" height="50" as="geometry" />
        </mxCell>
        <mxCell id="2bjuvnZJrYzHLu6adjYs-2" value="分段线路表" style="rounded=0;whiteSpace=wrap;html=1;" vertex="1" parent="1">
          <mxGeometry x="-471.5" y="1035" width="100" height="50" as="geometry" />
        </mxCell>
        <mxCell id="2bjuvnZJrYzHLu6adjYs-4" value="晚点罚款相关" style="text;html=1;strokeColor=none;fillColor=none;align=center;verticalAlign=middle;whiteSpace=wrap;rounded=0;fontSize=16;fontStyle=3" vertex="1" parent="1">
          <mxGeometry x="-576.5" y="975" width="130" height="30" as="geometry" />
        </mxCell>
        <mxCell id="2bjuvnZJrYzHLu6adjYs-28" value="" style="edgeStyle=orthogonalEdgeStyle;rounded=0;orthogonalLoop=1;jettySize=auto;html=1;fontSize=16;endArrow=none;endFill=0;" edge="1" parent="1" source="2bjuvnZJrYzHLu6adjYs-10" target="2bjuvnZJrYzHLu6adjYs-11">
          <mxGeometry relative="1" as="geometry" />
        </mxCell>
        <mxCell id="2bjuvnZJrYzHLu6adjYs-10" value="申诉操作记录表" style="rounded=0;whiteSpace=wrap;html=1;" vertex="1" parent="1">
          <mxGeometry x="-316" y="930" width="100" height="50" as="geometry" />
        </mxCell>
        <mxCell id="2bjuvnZJrYzHLu6adjYs-11" value="申诉缓行事件记录表" style="rounded=0;whiteSpace=wrap;html=1;" vertex="1" parent="1">
          <mxGeometry x="-106" y="930" width="120" height="50" as="geometry" />
        </mxCell>
        <mxCell id="2bjuvnZJrYzHLu6adjYs-12" value="基础异常类型表" style="rounded=0;whiteSpace=wrap;html=1;" vertex="1" parent="1">
          <mxGeometry x="-313" y="1110" width="100" height="50" as="geometry" />
        </mxCell>
        <mxCell id="2bjuvnZJrYzHLu6adjYs-13" value="业务异常类型表" style="rounded=0;whiteSpace=wrap;html=1;" vertex="1" parent="1">
          <mxGeometry x="14" y="1120" width="100" height="50" as="geometry" />
        </mxCell>
        <mxCell id="2bjuvnZJrYzHLu6adjYs-14" value="操作关联表" style="rounded=0;whiteSpace=wrap;html=1;" vertex="1" parent="1">
          <mxGeometry x="-123" y="1260" width="100" height="50" as="geometry" />
        </mxCell>
        <mxCell id="2bjuvnZJrYzHLu6adjYs-18" value="" style="shape=curlyBracket;whiteSpace=wrap;html=1;rounded=1;fontSize=16;size=0.5;" vertex="1" parent="1">
          <mxGeometry x="-213" y="1075" width="23" height="115" as="geometry" />
        </mxCell>
        <mxCell id="2bjuvnZJrYzHLu6adjYs-20" value="" style="shape=curlyBracket;whiteSpace=wrap;html=1;rounded=1;fontSize=16;" vertex="1" parent="1">
          <mxGeometry x="114" y="990" width="40" height="310" as="geometry" />
        </mxCell>
        <mxCell id="2bjuvnZJrYzHLu6adjYs-23" value="缓行减免类型：&lt;br&gt;&lt;ol style=&quot;margin: 0px ; list-style-type: lower-alpha ; padding-left: 22px ; color: rgb(23 , 43 , 77) ; font-size: 14px ; background-color: rgb(255 , 255 , 255)&quot;&gt;&lt;li&gt;堵车、停留&lt;/li&gt;&lt;li&gt;车辆故障（附维修凭证）&lt;/li&gt;&lt;li&gt;防疲劳驾驶、服务区停留&lt;/li&gt;&lt;li&gt;空车行驶、ToB带货&lt;/li&gt;&lt;li&gt;临时中转、计划变更&lt;/li&gt;&lt;li&gt;车辆绕行（附报账绕道里程）&lt;/li&gt;&lt;li&gt;交通管制（封路、限行等）&lt;/li&gt;&lt;li&gt;天气问题&lt;/li&gt;&lt;li&gt;疫情检查、核酸检测&lt;/li&gt;&lt;li&gt;等轮渡&lt;/li&gt;&lt;li&gt;交警查车、查烟草等&lt;/li&gt;&lt;li&gt;运行交通事故&lt;/li&gt;&lt;/ol&gt;&lt;div&gt;&lt;font color=&quot;#172b4d&quot;&gt;&lt;span style=&quot;font-size: 14px&quot;&gt;&lt;br&gt;&lt;/span&gt;&lt;/font&gt;&lt;/div&gt;非缓行减免类型：&lt;br&gt;&lt;ol style=&quot;margin: 0px ; list-style-type: lower-alpha ; padding-left: 22px ; color: rgb(23 , 43 , 77) ; font-size: 14px ; background-color: rgb(255 , 255 , 255)&quot;&gt;&lt;li&gt;GPS故障，抓取不准确&lt;/li&gt;&lt;li&gt;其他&lt;/li&gt;&lt;/ol&gt;" style="text;html=1;strokeColor=none;fillColor=none;align=left;verticalAlign=middle;whiteSpace=wrap;rounded=0;fontSize=16;" vertex="1" parent="1">
          <mxGeometry x="155" y="995" width="240" height="300" as="geometry" />
        </mxCell>
        <mxCell id="2bjuvnZJrYzHLu6adjYs-26" value="申诉相关" style="text;html=1;strokeColor=none;fillColor=none;align=center;verticalAlign=middle;whiteSpace=wrap;rounded=0;fontSize=16;fontStyle=3" vertex="1" parent="1">
          <mxGeometry x="14" y="880" width="100" height="30" as="geometry" />
        </mxCell>
        <mxCell id="2bjuvnZJrYzHLu6adjYs-29" value="&lt;font style=&quot;font-size: 12px&quot;&gt;1&lt;/font&gt;" style="text;html=1;strokeColor=none;fillColor=none;align=center;verticalAlign=middle;whiteSpace=wrap;rounded=0;fontSize=16;" vertex="1" parent="1">
          <mxGeometry x="-226" y="930" width="40" height="20" as="geometry" />
        </mxCell>
        <mxCell id="2bjuvnZJrYzHLu6adjYs-30" value="&lt;font style=&quot;font-size: 12px&quot;&gt;n&lt;/font&gt;" style="text;html=1;strokeColor=none;fillColor=none;align=center;verticalAlign=middle;whiteSpace=wrap;rounded=0;fontSize=16;" vertex="1" parent="1">
          <mxGeometry x="-136" y="930" width="40" height="20" as="geometry" />
        </mxCell>
        <mxCell id="2bjuvnZJrYzHLu6adjYs-33" value="&lt;font style=&quot;font-size: 12px&quot;&gt;1&lt;/font&gt;" style="text;html=1;strokeColor=none;fillColor=none;align=center;verticalAlign=middle;whiteSpace=wrap;rounded=0;fontSize=16;" vertex="1" parent="1">
          <mxGeometry x="-561.5" y="1035" width="40" height="20" as="geometry" />
        </mxCell>
        <mxCell id="2bjuvnZJrYzHLu6adjYs-34" value="&lt;font style=&quot;font-size: 12px&quot;&gt;n&lt;/font&gt;" style="text;html=1;strokeColor=none;fillColor=none;align=center;verticalAlign=middle;whiteSpace=wrap;rounded=0;fontSize=16;" vertex="1" parent="1">
          <mxGeometry x="-501.5" y="1035" width="40" height="20" as="geometry" />
        </mxCell>
        <mxCell id="2bjuvnZJrYzHLu6adjYs-36" value="表" style="text;html=1;strokeColor=none;fillColor=none;align=center;verticalAlign=middle;whiteSpace=wrap;rounded=0;fontSize=24;fontStyle=3" vertex="1" parent="1">
          <mxGeometry x="-146" y="830" width="60" height="30" as="geometry" />
        </mxCell>
        <mxCell id="2bjuvnZJrYzHLu6adjYs-37" value="查询" style="rounded=0;whiteSpace=wrap;html=1;fontSize=12;" vertex="1" parent="1">
          <mxGeometry x="-241.75" y="290" width="60" height="35" as="geometry" />
        </mxCell>
        <mxCell id="2bjuvnZJrYzHLu6adjYs-38" value="导出" style="rounded=0;whiteSpace=wrap;html=1;fontSize=12;" vertex="1" parent="1">
          <mxGeometry x="-154.75" y="365" width="60" height="35" as="geometry" />
        </mxCell>
        <mxCell id="2bjuvnZJrYzHLu6adjYs-40" value="金额汇总" style="rounded=0;whiteSpace=wrap;html=1;fontSize=12;" vertex="1" parent="1">
          <mxGeometry x="-240.25" y="365" width="60" height="35" as="geometry" />
        </mxCell>
        <mxCell id="2bjuvnZJrYzHLu6adjYs-41" value="申诉/处理/调整/批量调整" style="rounded=0;whiteSpace=wrap;html=1;fontSize=12;" vertex="1" parent="1">
          <mxGeometry x="-164.75" y="285" width="74.5" height="45" as="geometry" />
        </mxCell>
        <mxCell id="2bjuvnZJrYzHLu6adjYs-44" value="" style="rounded=0;whiteSpace=wrap;html=1;fontSize=12;" vertex="1" parent="1">
          <mxGeometry x="362.75" y="473.75" width="390" height="110" as="geometry" />
        </mxCell>
        <mxCell id="2bjuvnZJrYzHLu6adjYs-46" value="业务异常类型下拉" style="rounded=0;whiteSpace=wrap;html=1;fontSize=12;fillColor=#60a917;strokeColor=#2D7600;fontColor=#FFFFFF;" vertex="1" parent="1">
          <mxGeometry x="59.75" y="340" width="63" height="40" as="geometry" />
        </mxCell>
        <mxCell id="2bjuvnZJrYzHLu6adjYs-49" value="列表页" style="text;html=1;strokeColor=none;fillColor=none;align=center;verticalAlign=middle;whiteSpace=wrap;rounded=0;fontSize=19;fontStyle=3" vertex="1" parent="1">
          <mxGeometry x="-193.75" y="250" width="60" height="30" as="geometry" />
        </mxCell>
        <mxCell id="2bjuvnZJrYzHLu6adjYs-52" value="保存申诉及缓存事件" style="rounded=0;whiteSpace=wrap;html=1;fontSize=12;fillColor=#a20025;fontColor=#ffffff;strokeColor=#6F0000;" vertex="1" parent="1">
          <mxGeometry x="142.75" y="340" width="80" height="40" as="geometry" />
        </mxCell>
        <mxCell id="2bjuvnZJrYzHLu6adjYs-53" value="更新缓行时长" style="rounded=0;whiteSpace=wrap;html=1;fontSize=12;fillColor=#a20025;fontColor=#ffffff;strokeColor=#6F0000;" vertex="1" parent="1">
          <mxGeometry x="237.25" y="340" width="80" height="40" as="geometry" />
        </mxCell>
        <mxCell id="2bjuvnZJrYzHLu6adjYs-55" value="&lt;font style=&quot;font-size: 17px&quot;&gt;&lt;i&gt;&lt;b&gt;申诉&lt;/b&gt;&lt;/i&gt;&lt;/font&gt;" style="text;html=1;strokeColor=none;fillColor=none;align=center;verticalAlign=middle;whiteSpace=wrap;rounded=0;fontSize=19;" vertex="1" parent="1">
          <mxGeometry x="100.75" y="240" width="60" height="30" as="geometry" />
        </mxCell>
        <mxCell id="2bjuvnZJrYzHLu6adjYs-56" value="确认提交" style="rounded=0;whiteSpace=wrap;html=1;fontSize=12;fillColor=#60a917;fontColor=#ffffff;strokeColor=#2D7600;" vertex="1" parent="1">
          <mxGeometry x="-27.25" y="347.5" width="60" height="35" as="geometry" />
        </mxCell>
        <mxCell id="2bjuvnZJrYzHLu6adjYs-63" value="" style="rounded=0;whiteSpace=wrap;html=1;fontSize=19;" vertex="1" parent="1">
          <mxGeometry x="-47.25" y="410" width="390" height="150" as="geometry" />
        </mxCell>
        <mxCell id="2bjuvnZJrYzHLu6adjYs-64" value="&lt;font style=&quot;font-size: 17px&quot;&gt;&lt;i&gt;&lt;b&gt;调整&lt;/b&gt;&lt;/i&gt;&lt;/font&gt;" style="text;html=1;strokeColor=none;fillColor=none;align=center;verticalAlign=middle;whiteSpace=wrap;rounded=0;fontSize=19;" vertex="1" parent="1">
          <mxGeometry x="117.75" y="410" width="60" height="30" as="geometry" />
        </mxCell>
        <mxCell id="2bjuvnZJrYzHLu6adjYs-65" value="减免时长算罚款" style="rounded=0;whiteSpace=wrap;html=1;fontSize=12;" vertex="1" parent="1">
          <mxGeometry x="225.75" y="506.88" width="100" height="42.5" as="geometry" />
        </mxCell>
        <mxCell id="2bjuvnZJrYzHLu6adjYs-67" value="更新人工减免时长" style="rounded=0;whiteSpace=wrap;html=1;fontSize=12;" vertex="1" parent="1">
          <mxGeometry x="114.75" y="508.13" width="100" height="42.5" as="geometry" />
        </mxCell>
        <mxCell id="2bjuvnZJrYzHLu6adjYs-70" value="interface" style="text;html=1;strokeColor=none;fillColor=none;align=center;verticalAlign=middle;whiteSpace=wrap;rounded=0;fontSize=26;fontStyle=3" vertex="1" parent="1">
          <mxGeometry x="232.75" y="190" width="60" height="30" as="geometry" />
        </mxCell>
        <mxCell id="2bjuvnZJrYzHLu6adjYs-72" value="数据采集" style="rounded=0;whiteSpace=wrap;html=1;fontSize=12;" vertex="1" parent="1">
          <mxGeometry x="-557.5" y="240" width="73" height="45" as="geometry" />
        </mxCell>
        <mxCell id="2bjuvnZJrYzHLu6adjYs-73" value="罚款计算" style="rounded=0;whiteSpace=wrap;html=1;fontSize=12;" vertex="1" parent="1">
          <mxGeometry x="-456" y="240" width="73" height="45" as="geometry" />
        </mxCell>
        <mxCell id="2bjuvnZJrYzHLu6adjYs-75" value="Job" style="text;html=1;strokeColor=none;fillColor=none;align=center;verticalAlign=middle;whiteSpace=wrap;rounded=0;fontSize=19;fontStyle=3" vertex="1" parent="1">
          <mxGeometry x="-501.5" y="210" width="60" height="30" as="geometry" />
        </mxCell>
        <mxCell id="2bjuvnZJrYzHLu6adjYs-78" value="&lt;font style=&quot;font-size: 12px&quot;&gt;计算缓行时长&lt;/font&gt;" style="rounded=0;whiteSpace=wrap;html=1;fontSize=19;" vertex="1" parent="1">
          <mxGeometry x="-419.5" y="680" width="90" height="40" as="geometry" />
        </mxCell>
        <mxCell id="2bjuvnZJrYzHLu6adjYs-79" value="计算罚款金额" style="rounded=0;whiteSpace=wrap;html=1;fontSize=12;" vertex="1" parent="1">
          <mxGeometry x="-532.5" y="680" width="90" height="40" as="geometry" />
        </mxCell>
        <mxCell id="2bjuvnZJrYzHLu6adjYs-80" value="基础数据采集" style="rounded=0;whiteSpace=wrap;html=1;fontSize=12;" vertex="1" parent="1">
          <mxGeometry x="-659.5" y="680" width="90" height="40" as="geometry" />
        </mxCell>
        <mxCell id="2bjuvnZJrYzHLu6adjYs-81" value="减免时长计算罚款" style="rounded=0;whiteSpace=wrap;html=1;fontSize=12;" vertex="1" parent="1">
          <mxGeometry x="-553" y="750" width="120" height="40" as="geometry" />
        </mxCell>
        <mxCell id="2bjuvnZJrYzHLu6adjYs-82" value="激励奖金计算" style="rounded=0;whiteSpace=wrap;html=1;fontSize=12;" vertex="1" parent="1">
          <mxGeometry x="-661" y="750" width="100" height="40" as="geometry" />
        </mxCell>
        <mxCell id="2bjuvnZJrYzHLu6adjYs-83" value="申诉" style="rounded=0;whiteSpace=wrap;html=1;fontSize=12;" vertex="1" parent="1">
          <mxGeometry x="-268.75" y="685" width="67" height="40" as="geometry" />
        </mxCell>
        <mxCell id="2bjuvnZJrYzHLu6adjYs-84" value="调整" style="rounded=0;whiteSpace=wrap;html=1;fontSize=12;" vertex="1" parent="1">
          <mxGeometry x="-68.75" y="685" width="67" height="40" as="geometry" />
        </mxCell>
        <mxCell id="2bjuvnZJrYzHLu6adjYs-85" value="处理" style="rounded=0;whiteSpace=wrap;html=1;fontSize=12;" vertex="1" parent="1">
          <mxGeometry x="-268.75" y="745" width="67" height="40" as="geometry" />
        </mxCell>
        <mxCell id="2bjuvnZJrYzHLu6adjYs-86" value="保存申诉及缓存事件" style="rounded=0;whiteSpace=wrap;html=1;fontSize=12;" vertex="1" parent="1">
          <mxGeometry x="-170.25" y="745" width="67" height="40" as="geometry" />
        </mxCell>
        <mxCell id="2bjuvnZJrYzHLu6adjYs-174" value="" style="shape=image;verticalLabelPosition=bottom;labelBackgroundColor=#ffffff;verticalAlign=top;aspect=fixed;imageAspect=0;image=data:image/png,iVBORw0KGgoAAAANSUhEUgAAAT4AAAU5CAIAAAByEP/MAACXuElEQVR4nOy9z4slR3r327rSRiAMolezMGgz23czXry0GbB3Hq69ugYzw8B4camFF6/+BJl3a7BKllBrsBHGM+CNQWhTMDvBCyMhe6QuSm5sjnSbMWJatATdbdFNd6urz806eTLz+R0R55yqisjz/XAozsmMjIiMiG/Gj4znqStLAECDXLnsDAAANgHSBaBJIF0AmgTSBaBJIF0AmgTSBaBJIF0AmgTSBaBJIF0AmgTSBaBJIF0AmgTSBaBJIF0AmgTSBaBJIF0AmgTSBaBJIF0AmgTSBaBJIF0AmgTSBaBJIF0AmgTSBaBJIF0AmgTSBaBJIF0AmgTSBaBJIF0AmgTSBaBJIF0AmuQcpXvl9U/xwQefjT+QLj74NPm5ZOku//qP8MEHn6IPpIsPPk1+IF188GnyA+nig0+TH0gXH3ya/EC6O/68+PrH6VXBv/6j/+9//z+XnlV8mv5Aurv85Oh2ZreMz2V9IN3dl2axdH/6vSuCH/yPox/IY93Bdfj/9f1r09HfO/xff2xmxonhfx7+vnnV/zjoDv/+9xd/bcTGopJhVhGOeXPTJamwg2eXH/yURHh2d987WiXRRXXtT/7nlIrIdldu68z0Z1UO8wqq0Q+ku+PS/H8//Fp89MHols9kvG64q0/X1unPPgBphavWyZq+/IgYzlr5td//vUES68/iT37PkuX6QyS0UiYR6lkGuthEJt2ck6z+9HurOAuke/CD77EccunKQiguqMY+kO6OS9OU7o//z1d50j3rlHjzEgLQAbTadZxSugd/8v1r8uDvHf7J93KkeyZyIt3uZ3eqC6BUkZHzMT+Z0v3p6rkzPnQi6W5QUI19IN0dl+Y2ve6ZKqR4uAB+aqqrCxOMBi3p/vSPqRrX0dqRn32UhLjmu6SNa3NyriOMpfvHrPMMpLtJQTX2gXR3X5obLlOdNUpzCpoUgDVc9GIYA09dEDlSOtedLtGqKJCuwpfuemy/CuDMdc8u2aSgGvtAujsuzZyDVjA+FJw+mdIt7nWnFMc4s3pdNuwUc2Ce//PpdYfvZ4P24l43LqjGPpDujkvTPPj1//6/42BTTyIvP5+5LhlwHo7yyJTu1MGS5WLeWzo5N2WzgXSHNacfYK4L6e7o839t2Ot6Szh/pNdpVyLfdoV5CN9rbzhb2usai+E0J6mcb7DC/FMR25Vghbm8oBr7QLrnUqBFE93Ui1DVUZS9rgyky5eLM+e6RFfsLZE8YuWcvsEuf6/LhbcaNgcvh4oLqrEPpIsPPk1+IF188GnyA+nO5iMXjTad1+0qHnzO9wPp4oNPkx9IFx98mvxAuvjg0+QH0sUHnyY/VUgXH3zw2exzydI9v/gBmCuQLgBNAukC0CSQLgBNAukC0CSQLgBNAukC0CSQLgBNUp10X3zzuDty9Z0TGuC5wxtjgJevn3RHumA8piPpbOXgiJxdHPY219cOF+KIYArAIlwd7i+h8a7CTJcY+SEn6eXiwv5U/3tMlyY05pZcbtysPL46LA/a+W2Es5thNbsqGlGSZtXbN08KZ33VWXgVgaqLzCSm6FnCY5TsyinO8bL1Vd1vXWt1SbfXLd0pEvzk+VatmRbFVEJjCYTSVZFtLF2VYr50zfw70nVUah68Iht/U0jtcmF1vzr8AOzqVcFQvYy1HEm3IIl1jDLhsxjWxy1NkmfRdBW5ZqAu6QqJ9l/GUzo8oW+gtPeRyjg4OLCa7ZE6qjvMo8PNpcse57nSPWscrK75Ie9m9b2YgZvueLl2tXIPF10ILjXen5GSsB5hCemWJCGyPemR6lyGZZGRHypoddIV37u/r7x7s/vkSVf0nj19y+8OpFv2eMBq3Mkxtor22uHRpNci6R4cTIH7/NMj3s2ax+kNrm+h4V5XdWBKVqIvo0F4h2ZXXCzdkiTsTNP+k7aoIQIu0Skd1e9WJ109Qh5PjQE+uv2g+3z81UMSkx4WkkHJ8EP3m1q6Vhh6pky6iym+IukSza/nVupyV6XxwcaFu6RKUd2doUtaa3QgFUlXQXSVnwSP0pYmDWKN10ky8sIapau/dJ8X3rixTM91SfkMv1JTPVu6fq9bMmBmD4zDIukuhqnYUO9auvpmg2HFbIS7nJq3p1z2fQokJ7rlvW5ZEuM5sVjpNpihP7elK6+sTrr9l/e/uC+k+9k3j7qfT59NR759ckpiYq2WjAsN5VozWzFzEYc2nevSumVJr3Ols0svnGa9Y+drSVfdrDsjWIdseabb02tFKdesZRqKKsvTbiDd0iTM+bTd6zLp2kPxunvdLTAkak5v0wfc8ejm0iVRcr3JJPiFw0X2VNm4XB4nB2ezTLViNb68RnshqZLxt1r2Yc9TFkNihbk0CRXTcNU00l7Q9jFNaq1eXsU2W+kSsVm6lKJSRczjU+IhgbKkKztamYI4TF4O8BUmW7pM9qF0xzAlZVshWnfWGoYeVYu3srTAyEPVlG5xEs4iA+k9yQNcrauKZlH7CjMA88ed7pZdA+kCcNHYQ2kfc14O6e4EOTaawTIuqBxIF4AmgXQBaBJIF4AmgXQBaJIqpIsPPvhs9rlk6Z5f/ADMFUgXgCaBdAFoEkgXgCaBdAFoEkgXgCaBdAFoEkgXgCapTrqbulCXvoJgxjNLbOdPzbpQ1+5TzKsaMPrbwoW67eZrfQLynQ1Su027UO++EQVHV1Vvai8kuixwoe5L1zoAmoVrt3EX6tZ552jlDm709yu5LtRD6UK7M0J0YEpWgVPF2lyos/PhVXN2oQ7p7g1zcqFueA42r1IX1ild/eVK2oV6UrrNOzAFAzN0oU6cuVpXWVdWJ93+S7kL9VC6bj2BJpmzC3V3Fl53r7sN4QozhDsv5uFCfVpgTl41Zxfq/ntdyHaGzMOFOm2ptNu25tmVrzADMH/gQh2ARoELdQD2F0gXgCaBdAFoEkgXgCaBdAFoEkgXgCaBdAFoEkgXgCaBdAFokuqku6lvKmODitrVzHekTKdzfFnFMZAwhtcivRNmtVG1IHWwZm6+qYxNzPSyvfBNlZbuwcGBLFYinpRi4hiGIJbXIm7hMhzl0oVec5mVbyoWlpoQqvPV72E2Te3HUzo8IUO6R/wBvYF03RjWIWyvRYf6sX3t8LAodTAyJ99UNOgQQFkQtmE5pL9fyfVNlSNdPtjZRLpeDMvYaxE71v8oSx1MzMk3FeuAtU2gaKQz9U2VJ10qPW+ua8sojiHyWsRtPcmRgtQBgVcF6+5a802lrxTtOHAJWaN09Zcrad9UudJlltAb9Lp2DEmvRcPDeDyHXndz6AjIUm4rvqlYDz1c6vW6qtutTrr9l3LfVPnSHaR3sLF0dQwZXotWuTk0ntqQbjHTwgNTbqoKKvNNZXew7lC87l53C0qku8kabxhDlteivuJ1y4F0y9Er9436ptK9rtfLq9hmJd0JuZSgS5FWnJje5D2MSQyZXovkO4SC1IFA665J31TGe+UlbRG8U655hRmA+aPWije7BtIF4KIpnSM1sJuqGuRYB3NRUBuQLgBNAukC0CSQLgBNAukC0CSQLgBNAukC0CSQLgBNAukC0CTVSbdW31Q6NuzXuARm5puKXWnsbIZvqv7sVr6pfGMG4eIInCuz8k1lapK78pjsCuvew2ya2o+ndHhCjtEff0DvSrq5EYCdMCffVFZYz9iscssh/f1KLb6p0iaE0O7FMCPfVHS8bFvUwzfVdHYSb6F3KEi3Fnhlsu6uNd9ULIg1XodvKvlcXFtC77LXhYn8hUHHUJZyW/FNxRjig2+q5Y59U4XSddsBOBempQvT3wTrKmmounxTqePxULzuXncLSqQ7DnF2tsIM4V4si1n4plouFmTN1GiN8E3lzU6LvEO573Uh20tA665F31SkIdFWNB3mQ+eaV5gBmD+bLIxU/14XgH2g9IVEA7upqgG+qUDtQLoANAmkC0CTQLoANAmkC0CTQLoANAmkC0CTQLoANAmkC0CTVCfdOn1TaZuRLpTY1DrsOzf9DaWTADnMzDfVGEg1TXZVA7upavZNNVxjiJVHR7abpqxIQDGz8k3Va140TO7Kw/CtsaYu6Zqm9uMpHZ6QY/THH9DbS9d2mMJKeTgM6e6KWfmmkudkZNwAsGbLIf39SjW+qYZrlN3XMEjWD9UlpHsOzMg31XSStRjTS4a6rjrp6hHyeGoMcCm+qYYoxelVzIe0WN0BM6a6u4FXpuXhpjHfVIFFPXxTyefi2hJ6+153qaZMdkWi190hdAxlKbc131RZva66sjrp9l8q9E01RGm6LBETYN0oIN1dMi1d8HVaq6ukoSr1TSWlC99Uu/VNNUQJ6VbAYh6+qcxDTi+vYpuVdMW7td36plqxlXTzkgA5aN216Jtqike99lWLIpWvMAMwf8xne/k1kC4AF03p9KmB3VTVAN9UoHYgXQCaBNIFoEkgXQCaBNIFoEkgXQCaBNIFoEkgXQCapDrp0iOf3nk4Ght038ezzx/eeOmtY2ge7DN1Sbf7/rNf/Zba6N599HQ5aHgM9t3ps3uPnpYa/dXvm8r9F77YEjIRV6XadyS9yehdSau6JUax1k5zszqMbfMsl9yqKfY+ZWSJnG1gN9Wt+4+X3FdGz10u1Cenz1SYDMuh6n1TufYS0iR4n4mrMiFdbm00HOXStfxJmdXHDrLnuHxe5HifWoZnG9nDbB557cPb4/er109e/+QOD5Jj9Medj9TnmyoydYLV4Jq4KhPSPfNnos28Dg9M6ZIiT0uXNo0NvU/FZ5uwHKJH+v721Q++1GH4wTx7XWryVZ9vqqSVIrSbqsqUdI94iP7HkSld6VkllK4wBN7I+1R8VsVatXT7Ke57n9/zriW/ck3tpxqvzzcVpJtBXJVp6fJR6HCkaK5LumJrprux96n4bAteMugyVb+w3ENnvGLhqsRLBrGErsw3VUq6MNBfpqoyQ7rjA3UMa/e6lsidnDgT3Ykd9Loq3rqk242B6dsg6kGuD9avP9PXRQP50h1qvD7fVJF0PVdKe0dhVZoP6NXBQ0vvvJjp0mM8YD7iXq+iXjeY+IZnW+h1Y27df/z28dfqcIl05bpi9dLVLxf2l7gq2RSYF5xUmulhbrNed+msWI7wQ/IhwsM6Z1UW2pOuA5+NrG44OXWszTeV+14Xsp2Iq/IMOl+1BaNf7JhzXR5c1YfICZt6RyvMLD5rIUyftSKdjXQBqIYN1iXMTiGMEdIFYPeUvg/owgfBG9hNVQ1y4+M5vJW5gCTAnIF0AWgSSBeAJoF0AWgSSBeAJoF0AWgSSBeAJoF0AWgSSBeAJqlOui++eeYv7uo7JzTAc4c3xgAvXz/pjnTB6FVyf8OV6R+fWvtZA9MwFZ9puNFHbOyi6E/wyLNN0i7Mc1K7aIcw3F8Gtz4Yj7jloCs6dltRmMQUvdrCPFkY6C05R+35pup1S638gp9Wvg0HNMyKxLPXoNIV9rfrf3YuHJh4m59WKVbuOalp5J0oG8COrDbgVXRKugVJDE1HJMwqnSiY1ObUXqYHcd17mIVEl9zsXodXRNIlJwMJuY18uDo2wOtT5D1BviH4hXhOahxeQVq5K381wqDHaQNmkSSkW5KEyPbUCKLznoFT5ZZD+nv395V3b3afraVL5eRLyLdoX0XNNWkwpEhHVSU+HAybbNuaVN5aKN1ktltCdGBKVoG1emxUa0UpD5QkYWfatirylM08BfDrqpOuHiGPp8YAH91+0H0+/uqhis+QrjMF2US6GZPGqRaZ+Wa2dA3zbs+a1Jvrkq54bjPdHl7GrLszytkph1C6Cm2Un5EEj9J2djFcahsSy8qv2NTeHDD3nxfeuLHcYq7Lh0cb97pJfxXKYvqgMs9Jc4AObexKNYcncqJb3uuWJTGeEwb/VrpTu/J6XXVlddLtv7z/xX0h3c++edT9fPpsOvLtk1MVXzBg9sdZy7BjlFHrBUaKGsFV5zlpDkwrCky5ZlfplYNX0YF0S5Mwy91bdRjy4w7F6+51tyZapqKzEK4/1pXKx6SzwuxIwXyTUJXnpFmg1+OlSsbfcRvQFe1LtzQJs1pEP2pMkZ1eXsW2R9LVcw53gkLP2Q+9owPjMp3i0mohZrrewqI/1+XB1SQ4uvf2sUqV391wJCwHo6Jd6RYnoTrpse+2as6YAMM3FQA14Ux3S6+BdAG4aOyhtI85L4d0t0EOieYzIAXVA+kC0CSQLgBNAukC0CSQLgBNAukC0CSQLgBNAukC0CSQLgBNUp104ZuKwzZLZ9nrUntha7e0ToBtyK97g4ltVSeKQm1B9stBV3Rsal+YxBQ9S5hZeBrlPV4WmbPVJV34phI1JAyPhL2o29qie5c4njdC+6hLRN6JsrJsyTeVqUnyLGLGYXXvYTZN7cdTOrwitBw6gm8q+75s6XoRXzK8grRym/JNZYT1TMgqtxzS36/AN5VtrytvLZRulO1IutVr15JVYK3OO7RyLxllSdiZpv0nHS+7xqVTA+HxViddPUIeT40B4JsqmuuSrjg9021QuqKMWXdnlLNTDqF0FURX+UnwKG1p0iDWeJ1XPruwRunqL1fgm0rnO9tLRjDRXaalW6FzDTq0sSvVvCk50S3vdcuSGM9l+Kaa4vN6XXVlddLtv8A31YX5poqk6z/ILpdpRcFYlRVdpVcO3r0F0i1Nwix3b9WBSNceitfd625NtExFZyFcf6wrlY/JufumCleYqxTu0lqPlyoZf8dtQFe0L93SJOzZBhtpL2hlOg9xvSzZs0fS1XMOd4JCz7nLBzPxTSWk6xdKVVilyu9uOBKWg1HRrnSLk1Cd9Nh3symVLu3pMG9xPPWZSReA6tlkAcG4BtIF4KIpXbg35+WQ7jbIIVF171EkzWUYuEC6ADQJpAtAk0C6ADQJpAtAk0C6ADQJpAtAk0C6ADRJddKlRz6983A0Nui+j2efP7zx0lvH0DzYZ+qSbvf9Z7/6LbXRvfvo6XLQ8Bjsu9Nn9x495fn29t8m7Ox8P1IMbTNy5eBIbGod9p2znBi7VbEVYvfEVVnYBtaX7N4lmGWDZG6JHE9H5mx1SffW/cdL7iuj5y4X6pPTZyqM3LFvGV8MAamJhutHyuRIOTbR9ptku2nKigTsiLgqE23gglyCLYgTJSs6GsOU8emJ0MIeZvPIax/eHr9fvX7y+id3eBBlsJYpXdePlIlhmaSaByvl4TCke67EVZlqAxfiEsyx07XyZpqQNWE5RI/0/e2rH3ypw/CD0j2FbZ2+tBxTUDuwMumO4UXqkO4FE1dlug1IQ+hrO3cJ5pgLmZaEppcMFUHV0u2nuO99fs+7lvyic4xwBKylS2u8VLrjY5tNgewBM6a650ZclRltQPst8Mykvbku6YqddmjK3GxPlnSb8JJBl6n6heUeOuMVC1dyCYANWdLSZebRZdLVPjPMykOve67EVZnTBoan7Bh2a+ckzkSXhPNWRG3pyijqkm43BqZvg6gHuT5Yv/5MXxcN0HKkhabKlw1ByKm+xg/KpWtMgHUUkO65EldlXhs4OleXYKyRGItTRt50bNX3ujG37j9++/hrdVjN7pnXFrbmZ81bxpBJz6eQboUkqjKvDZyrSzDXBVh0L/vhm0rcGausHHdQ01XnJl33fR/YlnRVXrpLMPbSgyP9W00RwzcVAJeOs8a8xnl3FFwM6QJwQQQj5e5UoNwGdlNVA3w4gdqBdAFoEkgXgCaBdAFoEkgXgCaBdAFoEkgXgCaBdAFoEkgXgCapTrovvnnmL+7qOyc0wHOHN8YAL18/6Y50wehVpu8oucs08IUh95mR+EzDjT5i2/4vlQ29T57Fs8jxlrS3aJsb7hrDK09v87iuaLXlyTRtyEzC8UHFTA2NdtGgb6pet9TKL/hp5dtwQMMMRtJeb5T9rfNf7cP9VVE2GGfpXtMtI+ktaX+RZa/M/azytNqAV9Ep6RYk4figIo3N0iQ3N5qslOrewywkuuRm9zq8ItRMlsMqV5bD1dRkbKNsqGSPlK+6pLekPYZXkFauWZ52GzArJSHdkiREtqcWRnUuw3q2TJVbDunv3d9X3r3ZfbaWLh1Y+dL1vWSsouajs02yQRlStayrY29J+4zvSCEqz/F7NAbVUcoDJUnYmab9Jx0v2xb1zfim0uNhs9f96PaD7vPxVw9VfIZmnCnIJtLNHrIG2eADNqMdDe0g9Ja010xKUd2dU55GGwila65YFCfBo/ScXUxBrPF6M76pzAFz/3nhjRvLLea6uQ6rEr1u1nA5s9elSVk+FIbatLwl7TdDEXnKdXxSyIluea9blsR4Ttj22+kO8Xm9rrqyOun2X97/4r6Q7mffPOp+Pn02Hfn2yamKL9CMP85aek9TM2q9wOiHNbJBw5iPdtlSTG9Je05fRkq5qfJkbcArzUC6pUmY82nPpp5Id66+qUIizdBZCNcf60q1ZxRzhTlUb4Z0Za2Ov2U7SDe2PUQvw2eVp24DuqJ96ZYmkR5sLRbU49U0qbV6eRXbHklXzzncCQo95y4fBCPncK47jIJFtQ5HvBVGSJeidZdVntZDW1S0K93iJFQnPfbddPRnNMHpMG9xNa8wAzB/3Olu2TWQLgAXjb9Hx8Ycb0G62yCHRCXVAcBWQLoANAmkC0CTQLoANAmkC0CTQLoANAmkC0CTQLoANAmkC0CTVCdd+KbawDeVMECb8SYR26oOvqkc4Juqdt9Upu2ocS8zQJa99pMB31QkTHx6G3JM7cdTOrwi1Mx0MpCuK8vh6hxj+1zpLnbkm8qVbpR4o/AKsjzcGOVptwGzXBIFWJKEyDZ8U8E3lZWeK91Za9eSVWCtzjs0+KbaBrPXFSPk8dQYAL6pdHr7I11yQ6q7g28qDnxTTVHnDJcze12alKW9oTbHc5tLd2YW+sM9esp1CkROdOGbahu8ATN8U415yfFNFUl3jr41FvBNVZt0tybSDJ2FaDcnTfumCleYZyfcpbUMn1Weug3AN9WmXKR09ZzDnaDQc+7yQUW+qYR0/RubDVp38E1l0JB0AaieTRYfqn+vC8A+ULrob463IN1tkEOiC3kHcymJguqAdAFoEkgXgCaBdAFoEkgXgCaBdAFoEkgXgCaBdAFoEkgXgCapTrqb+aZS+4T9LcSWzaZtq3V2zow2c5+wESxvs/G06cKzWNnbfRh+TU2/9BZkv7JI0ab2MLMIM5OYomcJM8NOo07HyyKbsbqku4VvKsMCzDTxs+2+ZItgZatk4kYYBJMpupEI40RhqrKvkh1xa2r4Bd9UNEx8ehtyTO3HUzo8IShxpWrDio63CO9aMy1XUAXSnSKJ9qZDuku/pta/4JuKhYlPb4Nnar8kWs3zTRU4dqGn2PBKOD2wuumkdPl4LZElT7o0Er8Xh3RX+D4TFvBNJWjCN1VCut6c0ip/WRNqNuJGyGHXKh81fiTrmY5ppQ3phuMp+KbiNOGbypSu9FYgejRefUMw39ZdpxV0kfm9rhnJujmw45Buj1lTcgwF31TLRnxTqRJnQw36zHOrrw+nxmDxgDkQb/6A2YtEP2og3TOsmtLL8LpnttcorbjNA6VJmPXqVSKR7p75ptL1aHv1EdNKtWYv/vFAepnKn+wWLFNNkbBFZZFBSHdA15RUyfjbrSzZH8I3VRG7la6cWZJTYj1wrAsuOlmbauZj1gmbyojYcleYSSTW2sV4NaTbo3UH31QGTUgXgEaI3v8VXAPpAnDR2ENpnwZ2U7UMXEaBCwXSBaBJIF0AmgTSBaBJIF0AmgTSBaBJIF0AmgTSBaBJIF0AmqQ66cI31ca+qdzIZ7Q9BL6pRuqSLnxTbeObKvKeMxv5ujU1/IJvKhomPr0NOab24ykdnhCUuGrHhsmm5/EoLV1fUCWWQ0c78E3lmyWV75qtF6+m1r/gm4qFiU9vg2dqvyRahW8qcvWm0p2pdi1ZBdbqvEODb6ptMHtdMUIeT40B4JvKZE+kG42n4JuKA99UItduhF4wK8VEJOvmwI5vKd1iI9FaMWtKjqHgm2oJ31ThgDkQb/6A2YtEP2o2la7bUpvEqim9DK97ZnuN0orbPFCahFmvXiUS6cI31b75pgpXmGck3KVVU1Il42+3smR/CN9URexWunJmSU6J9cCxLubkmyrvpfE80LqDbyqDJqQLQCNssuxgXAPpAnDRlC73N7CbqmXk8Oic38RccHKgOiBdAJoE0gWgSSBdAJoE0gWgSSBdAJoE0gWgSSBdAJqkOunSI5/eeTgaG3Tfx7PPH9546a1jaB7sM3VJt/v+s1/9ltro3n30dDloeAz23emze4+eaqM/Z4eCu6F33KRi22o15ZvKCePmv9ktHP0dKQtnz4J+2kFoXbi+ZDrMilG4vCppBpa5kem0ymw98mwDu6lu3X+85L4yeu5yoT45fabCGBZgdJO3aYfFalypXRuFmGn5Vn8F5gckEuEEQpiqJBUnwqTz3xqrzB8ok6o86Qq7sOWoP8uYjNREYTOYEjXdUxH7JaP1mGcb2cNsHnntw9vj96vXT17/5A4PEphZKlUbJpu8CL1rzbRcQZVYDh3twDeVFWam0j3ippbZ0j04FLe+On14YEqXFFNZM3DqaYhb2Qg67Zb/aMJyiB7p+9tXP/hSh+EHdeGaPSercucRW1RnvrlugXSFEbGnK0h3OWWeWu/lS/eIh+h/HJnSlRWU3Qycp+9Ysa4fjOG3eVbFWrV0+ynue5/f864lvxLS9eaUlkMCWSVqhulGyGHXjpNqa66rZm7mdHZT6Zr5b166tuF1Wrpi4Lo+UjTXTTQDq5rIg0aUvumqxTrbgpcMukzVLyz30BmvWLhypLtfvqmsMPPtdYfvvCfNkO7YQ9JVStNxiha5kxNnokvCidXRDXpdFW9d0u3GwPRtEPUg1wfr15/p66IBVbhsqEGnIWxpYU6+qaww85buIN4Ds65XmM1gdfDQ0jtvEuOvombAqsCoWmewlzrbQq8bc+v+47ePv1aH9Qqz7dVHTCuVN5uGfVNZYeYuXbVETKfAvB1IpZke5jbrdZdyXdjxYqQvNF77OGdVVO1J14HPRvbSN5UVxs0/PZaIsi7sRQ3pp8poCP5EyJvr8uD5zWCqAx6dNU22FsL02aVR+bORLgDV4KwxRyQey0aMkC4Au6d0TrLgm28EDeymahk5NjrnyeQFJweqA9IFoEkgXQCaBNIFoEkgXQCaBNIFoEkgXQCaBNIFoEmqky58UwGQQ13S3cI3VY/eTsx2n5pWuLZprt4JrKJN7YKYdk1MpmH2llYjCSdwkMl9pi+W1h1W8dTJ2QZ2U23hm2rFWZVcMzyYTBv+x43j5kFHCna0sW6E1w0a1jHFlkmYgZs2+jk/VsXStsMqFsNe+aY6o78/3tjZPRPvQOZBWxVOtKXbxUcM6VpJmIEhXZPJ1LpVh1V2BNwAsH7LoY18Uy2nCpHGyltK14s2v9fVp/SDVidhBoZ0TYZiodOOEtcZ0kz32oU7rKJH+LxpyimPoGrplvim8qqqbMBszCLdaFMSOsp2MRU0stj+FiJeM1WHZY2d4fVGW9V7RrzeXFdZ4hY5rDLuZLiM5KJ6U/uNfFPJCQnzmiCL0j1o6syLNkc465RYUFkHThJmYPS6JspQ/aA1h1UjXq+roqhLulv4ptIrsu783j9oTjW9aPMlJEZFQo1eEmZgSNeEF0sv3rYcVhl507FV3+vG2L6pZGGMv7eTbhRtapmK1ZQ/dnKTsAJDujayWMQSMR+ZHlXpsMqKIZyitSddE3O2PyxcFEhXzGnCaM35jx1dsBDhJ2EENjMJLDXIASkd25DD3nruhTusUkN+2XCaWGEGYIZE7wvhmwqAiglGygv4prok5BgI01Fw3kC6ADQJpAtAk0C6ADQJpAtAk0C6ADQJpAtAk0C6ADRJddKFbyoAcqhLulv4plI7Vcwd6SqE79BI7FCNbQCCwJRp58ZkF2bsZ7Uz7ATOTHrexFWZMPqDb6pN2J1vqpR0F45/KdehkfJUYv8bY++IhpoVLOCtaqfEVZmQLnxTbcLufFMlpLtw/UtRLyS+dNmBjaQb7T43pGtl2AwM6S5TVZkytYdvqg3YnW+qWLqLyL8UHZkG0uUeFbbrdfUp/eiFt6p84qpMe8mQFrnwTZVkd76pxMSDT/zsWuTd6GhVual0s6e6yTEwvFWVEldlhoMbbUDv2evCN1WQ/Ea+qaJe13H+pKyb2ePX1Kfn2aSg61vXLQsta8XJsBkYve4yVZUZ0h17yDHs1l4ynIkuCQffVCsC6XrOn9RseAOHRl7qCWIvNl6GzcCQ7nI3VXkE31Ql7Mw3VSBd1/mTvISvK+oVZt9NUOYyFYsO3qp2SFyVYmRK61IqDb6pctndbipXurF/KWPKar7XZUMVfUrMtO2lZBooWJqAt6py4qo8A76pdgw2QoJ9IXo7CN9UAFRMMFJewDdVNcBbFThfIF0AmgTSBaBJIF0AmgTSBaBJIF0AmgTSBaBJIF0AmqQ66cI3FQA51CXdXfqmIsfl3n5nC2lqA4Wzq5kdpptevF3QyS3QcvN56MLKSU4aMMTOmazsF5SeSiBRJp4TqRziGJJ3WokbqvEofFN50l3s0MOTFYZZFImmLnezU2vsHMOjlKVumL0j6kwrx2BVZHIMllN62rYmLBPXiVQOcQyJO63DDRU3KLKM7dXZRvYw78Y31XB0dx6edBjL7tIzCpsSvBDpsgO50hUpZJeeNLNJlQlpnVbuQuIYUndagxsq31pJHeAGgPVbDu3GN9X64KqwjMaxC+nabc40xaZN7aKky0yWc6TL9VBQepF2+PkhOdoVbyJdL4b0ncoBwrULd0Pl+sEYfptnVaxVS7fUN5XxsHcbVGj1agtETeDsNjfmhIZ358Djc1infmHStadrBaWXlC4rEzJTtHMXEseQ8ZDSwyLPNNeb65Ku2JnHmjI3B2Myx/5ZGW3V0t3KN5Wat4Qy2GGvu9AurPgg8iJ73XGdK93ripFuSenlSNceiah+MEkcQ86dDj0kXQa0Bszu3EflxJnoknDC6n+DXlfFW5d0d+mbylgNpecveK5LQ16UdNlgK+cUzWRR6ZXOdWmW1ZpTgjiGvDs9ulQ3VCyNuD8QSVTf68bk+qaSZaY7le2lqx6odAKmFxy85nUe0j06UAO+8SQ952SyrPTU6k5emQwni9zyJGLIu9OjS3VDJR8ii5yzKqr2pOvAZyOrZ2rYRYZzXbspOfLWU1c7/NiobOnq1DeQbnAHtBsVwtKZ1H1FWHoqq7llstRKT5GOIedO2Q9vrsuDq8L16peUjhq7qGmy9UzTZ5dG5c9GugBUg7PGHBE/lq0YIV0Adk/OBEyED4KbC3mQrocc65RUxAVQefbAuQPpAtAkkC4ATQLpAtAkkC4ATQLpAtAkkC4ATQLpAtAk1UkXvqkAyKEu6cI3FU2dGqVZed5P+rLKNi2Wlsl6V9IRfFNtAnxTBakXmh/sCauygm+q2qQ7HtRH4JsK0l3RlxVp38sSLxnwTbUr4JsqSB3StRjKig5wSrxkSIvca/BNtRHwTTU+h3XqkK7FVNHMQDbfwY0eFnn2ut5cVxndwjfVdHD8At9Ufp73E2WTfgDfVC7wTRUlkTfXpSEh3W3gZdWLF76pHOrakgHfVPuNLCuxRMxfBtIXAFJp8E21FfBNFaQO6Vo4pQffVBZNSBeAanDWmCMSj+VG3usC0Do5EzARPgjewG6qmpBjHQxVQVVAugA0CaQLQJNAugA0CaQLQJNAugA0CaQLQJNAugA0SXXShW8qAHKoS7pb+Kbq4ZvPxyPBxoose7El3aEx2XnZ+1M1Xq4SfpJU9m2fLiq3VuRD8JJs10l0d8XFsr4EvqnK2Z1vqhUL7YlKeSERbTWr1oXJXmA8aOHkKuknidm9LMUTIGWY6npvys52pcR3lygW+KbaGbvzTXXGwvBEpQrddUPg13q0mzytATdXCT9JsTFw0qactAAjeOPShW+q+qWb7ZtqOdVSbMqsS7ys1xUkNRDlSlqHXiN+kmwXHP5p7Q6C9tJzk653d+liicrctbVNSpc+Spwn/diINvOSoWKtWrolvqm8+tuJdMfZh2kPH2ogzpU25k5Id8x8hnSFCenMpGvfXUaxBGWeOddVRrfwTTUdHL9k+6aSsxTfTwF/fOUuUw1xGXPlSAOpXA1Pa61YV7rZve6YZdnXpLNdMfHd5RSLX+abeslwJroknHAFsEGvq+KtS7pb+KbSS6dOofOiiuYz7pA1dF6gAidydeT5SYrnukFu+am+eR/MUrr67vKKxS1zUefjr+SAmVbWEXxT2di+qWQJjb/1CrMcnrBRLF8ynCrdGmEPP30NZOXqyPOTJJ/WPH9ublVrkAvXyWxXTeLu8orFLfPNet2lXBf2x3ziqNE9OGdVVO1J10Q/24YjfJbCn6h69kp7SSlxMdOZrnA1EOfKXmQ0pj7Oq0M3t/b0fq7SNQekyWLxypwPk/hzUsYqcsKm3pP2rEEXic9aCNNnl0aNzUS6AFSEs8YckXiWGjFCugDsHnukHIaPl0z0owDS3SFyeNTokBQ0AaQLQJNAugA0CaQLQJNAugA0CaQLQJNAugA0CaQLQJNUJ134pgIgh7qkew6+qXrIZolhl6lEGG6O8bEDOv7kthlnE7W7OdnbdK2Pi421csu6c4+t0981r6Zsoz/4ptoZ5++bal0O1PLHNZ1MSteIP0u6lu2eZxIkN8a7NolO0uoe2rU0MFndNXxT1Sbd8aA+sqlvKsvqdUnPFkjXin8D6ZYY4k6JQbo9/V0za80CU3v4ptoV5+6byjaXHymSrhX/BtJ1Lfi1KRltoJBuz3DXdKhS4iVDWuReg2+qjTh331Q7lK7dPsrmuteoXxUVbLTCT86Bx6e3nsfui3SFgWy2dI0Bjmev6811ldEtfFNNB8cv2/qm2p10nb58V73umBJf4JiuRK/bo2zSD+CbyqVp31SxdkWzDmTmxX+uc10aEtLt4Xfdixe+qRzq2pJR6JvKeOb5K8zi5Q9ZCHbj32SFWWbJX2EmUyhIt0fetVgidmtQKQ2+qbbi/H1TjT/knHA4YfV/agbjx89nQdEkVh9257RiBXtMSEtXp71v0jUHpFbJ+gu73lyXB1dF7dUUKXE1VlPTZOuJrc8ujWqciXQBqAhnjTki8YBt5L0uAK2TnEfp8EFwc8EG0t0tcoQ0p6EqqApIF4AmgXQBaBJIF4AmgXQBaBJIF4AmgXQBaBJIF4AmgXQBaJLqpPvim2f+4q6+c0IDPHd4Ywzw8vWT7kgXTEU2bYeYTLGsLaRie7jaPpFjOCbgm97dpMVWWHO/ht4U7W2T9mNzN0g3j95MTo3cdUWkNpmTiiLbi1UEyt4hM4kpepYwj5LaSOgLhUHxRF3S7XVLrfyCnzzfwj5OWPl4ZlVka+jUBMqlu7B8YhlJ52yPS1gIkft0YhMtQbe0ppHaVTaAofMwbZRCFaTdz+gUSpIwHVPJ5nRFedpyzInq3sMsJLrkZvc6/ES04TtPutPxYukuDJ9VZtI7kC6J0owtNgaeAZEDAqsivNLzCiUh3ZIkRLYn067IgNdrypVbDunv3d9X3r3ZfRLSjZrneUt3YfmsMpPeXrp0eGjFZnsWSPgKaQvf/4BZEU7puUUSS7ckCTvThjJlZCs3AMb0iF9XnXT1CHk8NQb46PaD7vPxVw9ZXOvpQXLUuusBc+BdxZJuYqprzFPpEWnZK2OzW2SpHUvdTHejujujIpzSC6Wr0MsgGUnwKEkU4fOWDuPZc6BuLxnmgLn/vPDGjWU0112zLsXQnt5ZpqJlVCBdGjpl5r5trxsNFp0ciBuYBcONe8p1HFXIiW55r1uWxHguNRyW0rWfMPLK6qTbf3n/i/tCup9986j7+fTZdOTbJ6dOrKIAcwfMA6rypgu0WvRacrBCtv2A2R8t2vfuHmua/s71Oq1VEV7pedoNpFuahFcZ4fOWN0nuwKPiXndz2KKyqJVS6YpFWbpia6laajV4auxgmYqModw1szmvMPesSuGaaON2RXilpwoqucJcmoRdP/aKiKgwUsNu05uLdPnYV3WMZdJd8ges1AE5cRj7xIrnuplPfePthPmW2M3mjJaoRrTuIudhVumNgUSjcaVbnITqpMe+O1xhZtkKFq7nI13gsW4I1w4vOyNgxSYrD9W/1wVgHyhd8Tfn5ZDu5SIHVXOblIJzA9IFoEkgXQCaBNIFoEkgXQCaBNIFoEkgXQCaBNIFoEkgXQCapDrpbuGbaunvtSc7H8ad5MYG08Dcz4s/uTFGbnuGr6ltsK3q4JvKoQnfVCsWlo8oaru8HA1ExnPCFiSUrhF/lnQDcwLSFp2oRM3O0hIoH6ld7ScDvqlImPj0NuSY2o+ndHjBwvAbFNuqlknXin9b6ZIs7K/9bQmRu4F0BR3BN9WO8Eztl0Sreb6pltM9h34rOEXSteLfVrqhRaab/8RdzRvf20Cygkhpb+QloywJO9OGMrWp/f75ptLVskPpmvEXznXha2oHTHevujv4puK04ZvK7mt3J12nL9+q140Gf06OZLb2kaGgPOU6FSQnuvBNtQ3egLncN5XnNyjWbsoBDXsGmPFvOWD2R39LHSA6tlcs4JuqNulujus3yHCF4q8wG+5PiHLN+LddpiJjIjsq47G958JdrksNvqnmIF3fb9D4Q05bhhNWl6YmLn788WvDZXqFedKimGXtla+pUrTu4JvKoAHp7hVH8DXVNJusVFT/XheAfaD0DUEDu6naRw6S9n1SCs4NSBeAJoF0AWgSSBeAJoF0AWgSSBeAJoF0AWgSSBeAJoF0AWiS6qS7lW8qbRtrncgy25zOG3tcTdsRubd4iFrbm1g7lmk82KvsYlvVNeubil1pWEFFpqt1SXcr31TEzucMVsKs+HNMv4ZwrDxty5IxfuFiSEadMjAM8wnWyELRfjIa8k1lNj/uymN6pte9h9k0tR9P6fCE2K5VmXampesJJ5Ac7wC2lq5l1wQi9wSL1nxTGWGVBeGU35oth/T3K5m+qWwJjkdd70GudPO9KNCDtKvfVrr8QQAGfO8Ei9Z8U9HxMulMSPJTOqrfrU66eoQ8nhoDGL6pXEcwek4h9bSBdNX8ZKq8SbwZ0jXjwUw3AS9s1t216ZtqSRQvnhzNeMkwB8xXcnxTJXw4cScldtFwNut1h+9rS+stel1MdH3oGMdSrnTpZBXpRr1uWRLjuZRvKhaf1+uqK6uTbv9lM99UeXPdvBp0z2TMUXvxGo6xiwbMEK/LtLRgrMqKrtIr0uz65cIsScJrlGatEunaQ/G6e91tMB5vzpyITkeCFWbtQyWxwqxHw9stU2Gy67IqmvZ9Uy0WZE3TcFEmR+Uzle4ZbJ4i3+uKJUF7QipwfBddkanoWpINIzHXteNhjx9A0Lpr0TcVaQP2LgQ+dK55hRmA+eNOd8uugXQBuGjsobRPA7upLg/4lAKNAekC0CSQLgBNAukC0CSQLgBNAukC0CSQLgBNAukC0CTVSZce+fTOw9HYoPs+nn3+8MZLbx1D82CfqUu63fef/eq31Eb37qOny0HDY7DvTp/de/TUyHe4h9k806hvKmFxtk97SaKiNupz2kFoXbi+5Ao1R7HKv7iytFWT8x90zTpu0DfVrfuPl9xXRs9dLtQnp8+MTO+TbyrTWNTI8wyJizohXW5tNBzl0rX8SRVWlnxeiPxyZx0yYvNsI3uYzSOvfXh7/H71+snrn9zhQfLtdefgm8qVrhfxfIiLOiHdg0NtnXnt8PDAlC4pyLLK0vXmGuEmqo8bANZvOUSP9P3tqx98qcOwg3vmmyqS7sy1Gxd1SrrCeUn/48iUrqyL7MoyekiZqO0HIzyrYq1auv0U973P73nXTj9cBzeTMbQ5KdlMumpqOdWibwoc2usaE+mEHfG+S9cu6rR0jbEYl256rpuoLGOwFNjMixz7Z1vwkkGXqfqF5R464xULV750Za8rxsE77nWH7+rxviztdWP3Ninpzti5RlzUGdIde8gxrN3r+hMulRNnojuxg15XxVuXdLsxMH0bRD3I9cH69Wf6umggf67LQoZzXfNMxrSnb1Hn6Zsqkm5q0bxx4qIOSoPPG+kM15OuPeEycyKWPqNeN5j4hmdb6HVjbt1//Pbx1/r4Qrg88VeY6bwkaOcywpp8U4UrzHMWbrKoWbWz4pBKM18zbNbrLuW6cDjXVQ8RHtY5q7LQnnQj2JQkmEH4E1IBnfoYM5wrl+WbSkjXe7s4R9JFTSvNFoz44c11efD8ykqsMLP4rM5Fn7UinZd0AaiBDVYb/BeBXoyQLgC7p3SVvwsfBDfHhpBuDx8o1bUhqea8gUsD0gWgSSBdAJoE0gWgSSBdAJoE0gWgSSBdAJoE0gWgSSBdAJqkOum++OaZv7ir75zQAM8d3hgDvHz9pDvSBTOiC/cwm2f8PczsEr271Ngw7KSuLYDGrepqKzKP0bAHExkSe2vnv1kjKMzxl/Y64VaZU6S+24rCJKbo1RZmZUcujEjoVQ3spup1S638gp8y38JoxrccEgZavnSprIwd59J60EtdNjdm58nsWgLvVkf5jrJmjV+Y618dfgBVZRlFqq0McpNYxygTJi3Lan7cBmkyXap7D7OQ6JKb3evwhHx7XbbVO0u6UzAvnjh1ftY26uqP8i6EWZCbEt0/6fqFuRzqjO/kL6kyHX6rJES2p7qkOpdhPQOnyi2H9Pfu7yvv3uw+CenaEjRNpZk8tpBubKG59JQnzEalNanorpUbB5XJfZOuW5hTlbnW6skqU1HKAyVJ2Jmm7YqOl22LeuYpgMdbnXT1CHk8NQb46PaD7vPxVw+niOyaMOcUcvpYOmDOnjGTGp2+eoaiPIQwJg7b2T5NdVc4hckflaY8chY5xPKB0lV+EjxKW5o0iDVe56bEFZvamwPm/vPCGzeWwVzXFY/sdcU4KW+ZynBVkOEmRz5fh07Vamza1PrgCL2uQ7Iw7YLNqLKlUaT2BCcjifGcWASx0x3i83pddWV10u2/vP/FfSHdz7551P18+mw68u2TUxJT/lw3rwbtMvbiiVOfrvSfqWrox1wuedncT+mahSlNI1NVn12kXJglSXjNwqwxIl17KF53r7sNxuNtK99USemyeMLUp9DC+b4r3bHT9+Lf2xXmHl2YUiXj7+wqS64wlyZhVw4baS/oG8RpUmv18iq2+Uj3DDZPke91xZKgmE5acSWkKwXqpk5Ouy9udT2r8PShT+bQV6JE54rWnezfhiNhlTlFakq3OAnVSY99N5sZ2a2Vz7GXRm89L+kCUD/udLfsGkgXgIumdJ7TwG6qy0MObvZxAgmaAtIFoEkgXQCaBNIFoEkgXQCaBNIFoEkgXQCaBNIFoEmqky49Qv87dv+PsPvvzx/eeOmtY2ge7DN1Sbf73v/f+vHn3UdPl4OGx2DfnT679+ipke9wD7N5Js/oz9p0qrcMO6nbhmDSSqS/2N3iPMYU7mG2N5KoVJreeBIXlKrPaQehdeH6kukw25rDLXhUuUWNQVs1qRybbcg+28Buqlv3Hy+5r4yeu1yoT06fGZkW5eNbDuWYfgWm9rZJV5C61C6zImPmB+fjm8o1chBxtkFcUAnpStMtZaEli9yzSVAHWSXL54XIL7FfMswCzbON7GE2j7z24e3x+9XrJ69/cocHybfXZUYYWzi4ofHEqVuWuzL1yQRVp2rHr+/LIbJPas9qMFlQkXQPDrVt5bXDwwNTuqRs0tIVjUoEdo1wEzXC20r9lkP0SN/fvvrBlzoMO2hLcDxKy4PV+hbS5U/HKHWmPGE9LUUluutdeMlImhY2pd2woJLSPeIh+h9HpnRlXYfSFYbAsrZkora7hfCsirVq6fZT3Pc+v+ddO/2wG/dYuHRa4hm762vtAXP2jNl8astRlm4ohjFxKN3k1HWe0rWtrtPSNcZiXLrpua6x0CCG78YIzLOZFzn2z7bgJYMuU/ULyz10xisWrnzxyF5XDD3zlqmMYpcT3Sh1cqEaZHnPeNZBnG+v25aBflhQOdIdn8RW8cru0ZxwqZw4E92JHfS6Kt66pNuNgenbIOpBrg/Wrz/T10UD+XPdDNGtL9FnvHji1Kcr/WcqP9O3yR35poqk699/rcQFFdygXGM4tEqXl4c54TJzIhpD1OsGE9/wbAu9bsyt+4/fPv5aH18Ilyf+CjOdl2whXTm/qdY3VbjC3Jhw8wrKXPeXSjNfM2zW6y5TKx/8kL1QmTirstCedCPYlCSYQVizJCOuhHRlO3FTJ6f54eQsVM6houmW95JQppIKXjnpgqLlZAvGX3Jgc12naodYo0YVrTCz+KzORZ+1Ip2XdAGogQ0WEIxRdiJGSBeA3VO6cN+FD4KbY0NIt4cPlNrbYzQymxsBCSBdAJoE0gWgSSBdAJoE0gWgSSBdAJoE0gWgSSBdAJoE0gWgSaqT7otvnvmLu/rOCQ3w3OGNMcDL10+6I10wHpPYZWpsUFenpt0L4b4FssnB3jlMrEedPcpyn8SV6f+yOvHw3bJgQJtoUSMQz+zDL0+7clUEqjllJjFFr7YwKztyYRdCr2pgN1WvW2rlF/zk+dY2MbGLA+G4wrdSz/UItToYOJda/5aNILZHsYwJ9xtZIsoGsMMPIA0+cypXWxnkJrGOUSZM9iNbmuQ2SNMDve49zEKiS252r8MTghK3FJK1QdwTTiA53gdsLd3UrvQ9xDKDJr+urfzVCIMeqzyzK3fzJES2Jz1SnRst0zRwqtxySH/v/r7y7s3uUyxdPioJe12HMt8Uw0E6ntpWuvxBAFaIDkzJKrBWj41qrSjlgZIk7EwvhO8UOVz2vGSozqY66eoR8nhqDPDR7Qfd5+OvHpKYEtL1p7q+fsPaVRHyXt62Bjaka8aDmW6EN56y3dw45ZlZuVpX+UnwKG1p0iDWeJ2bEldsam8OmPvPC2/cWObPdddHAu8k5DJPv5v1umOsB0db9rqY6DrQAY6lXMeHQZ5no6jXLUtiPCcM/mOHCI36phq/v//FfSHdz7551P18+mw68u2TUxKTKnHTKZGNp5Eij1Bq7KY8Z5cPmCFem2ldwViVFV2lV57ZlcuFWZKEWX/e6gWR7lx9UznoevS9+izFonI8eMr0CGW+Q9CuY8uWqTDZtVmVC3P0JVUy/nbLM7dyxwOlSdhdBhtpL6gbLMf93ex9U/nv1uTshZSQmv8a5HqEsifbBXPdlMcjQNC6k6U0HAnL06lcU7rFSahOeuy72cRKt9jpMB8617zCDMD8yXoxmb4G0gXgokmuvgga2E11qcCrE2gJSBeAJoF0AWgSSBeAJoF0AWgSSBeAJoF0AWgSSBeAJqlOuvQI/e/Y/T/C7r8/f3jjpbeOoXmwz9Ql3e57/3/rx593Hz1dDhoeg313+uzeo6fa6M/ZT+Gdats3lftfc2e+lyQqZ2Pf0bSD0Lpwfcl0mNWUcHlVUlOBNQxPx6zgBn1T3br/eMl9ZfTc5UJ9cvpMhTEswGxXCiQECeA094p9U5n2okae50Zczgnpcmuj4SiXruVPqrCm5PNC5Jc765ARm2cb2cNsHnntw9vj96vXT17/5A4PEphZOkZ/jfumcqXrRTwT4nJOSPfgUJtmXjs8PDClS0qxrKZ0pblGuIm64waA9VsO0SN9f/vqB1/qMPygbXOnzSkHmvdNFUl3ztqNyzklXeG5pP9xZEpXVkR2TRndgkyUG/MFbaQZ31Tjwf5LP8V97/N73rXkV0K6/lTXb+F1+6bad+na5ZyWLh+FDkeK5rqJmjJGSoHNvMixf7YFLxl0mapfWO6hM16xcOU03zn7pkpJd67ONeJyzpDu2EOOYe1e1xK5kxNnojuxg15XxVuXdLsxMH0bRD3I9cH69Wf6umhAFe7cfVNF0nUfOjMgLue8ZrA6eGjpnZfc+KuophK9bjDxDc+20OvG3Lr/+O3jr9XhYDXeWaZiodvzTRWuMM9WuMlyplNgXhZSaaaHuc163aVcFw7nuuohwsM6Z1UW2pOuA5+NsOLgp+bim8p9rztj2Z6RLmdaY7ZgxA9vrsuD59dUYoWZxWcthOmzVqSzkS4A1bDBUoP/FtCLEdIFYPeULvEv3F1BZzSwm+pSkbsVa3q5UnPewOUA6QLQJJAuAE0C6QLQJJAuAE0C6QLQJJAuAE0C6QLQJJAuAE1SnXRffPPMX9zVd05ogOcOb4wBXr5+0h3pgvGYxC7TYKuwNNj1dziwC/UGU2PDMDtp7WOnAVfn1VZk5cNI7oIWGQpufIYEJTn+4gHiDd52eaoIVHPKTGKKXm1h1qbk3IKEXtXAbqpet9TKL/gZ2esy/0zmpjTaBrxdaGTj6NRA5MZ120xlyatYtjhm6slMWwLvVuymYjOm+eKX5PpXhx9A1VdGeWorg9wk1jHKhEmzsjTJbZAm06W69zALiS652b0OTwhK3DH6S28QZ4GGUlbPCEed/Bg/a9t19Ud5L8KMyE2J7pl0/ZJcDhXGd/KX1JcOv1USIttTRVKdGy3TNHCq3HJIf+/+vvLuze5TLF0+Kgl7XY+kdGMjzaWnPGE5Kg1KRXetPDmkbnzmeCU51ZdrrZ6sLxWlPFCShJ1p2qgsw1PPS4bqbKqTrh4hj6fGAB/dftB9Pv7qIYkpIV1/qhs0e3fAbExg7KZAcuWMAkyLeWb6mSHdvZnqrvDGU7abm6L6Wsry1LrKT4JHaUuTBrHG69yUuGJTe3PA3H9eeOPGMn+uuz4SeCchl7kt3qwSNk01JWjlgVzotTdtbX1whF7XIlmSdqlm1NfSKE97dpORxHhOrIDY6Q7xeb2uurI66fZf3v/ivpDuZ9886n4+fTYd+fbJKYlJlbjplMgmmPboYhajXfO7HfE0l3XrRoSmq1ZeW9tD6ZolKe0iLd80or7yypMLsyQJr02Y1UWkO1ffVA66Hrf3TZWULpvZGM9X4yWC9L/vSnfs9L3493OFuUeXpFTJ+Du7vpIrzKVJ2DXDRtoL+vpQ9zTwTcVnL/m+qdLSlQJlSdnX+i9u7em6854wdpQ1e7TuZC0OR8L6csrTlG5xEqqTHvtuNi3S9TYd5sOzmleYAZg/7nS37BpIF4CLpnSS08BuqksF/p9AS0C6ADQJpAtAk0C6ADQJpAtAk0C6ADQJpAtAk0C6ADRJddKlR+h/x+7/EXb//fnDGy+9dQzNg32mLul23/v/Wz/+vPvo6XLQ8Bjsu9Nn9x491UZ/zn4K79Qe+aZSqbS78SQuJbXvaNpBaF24vmQ6zPblcAseVWhRSwisYXg65pZIebaB3VS37j9ecl8ZPXe5UJ+cPlNhDAsw25UCCUECmC3YNbW3rbpEBdGN7r5HJWl+cD6+qVwjBxFnA8SllJCutNtS5lmyvD2bBHWQ1bB8Xoj8EvslwyzQPNvIHmbzyGsf3h6/X71+8vond3iQwMzSMfpLbwFfzMY3VWSf1JjVYLKUIukeHGrDymuHhwemdEnBpKVLLXu0Sa5rhJuoDt5Q6rccokf6/vbVD77UYfhB22JOm1MOeEoQMcTS5Q9I41lgK08YUEtRie56F14ykqaF7Wg3LKWkdI94iP7HkSldWdGhdIUhsKwqmajtayE8q2KtWrr9FPe9z+9515JfCen6U92g0boDZmN+4zq40Q9uOdDSbWVqlnnSTU5dZyhds5QypMtHocORormuscoghu/G8MuzmRc59s+24CWDLlP1C8s9dMYrFq6cFhl5K5guc1u8WTdsmmpK0MoDuVCNs7zHPOsjzrfXbchAPyylHOmOj2GrbGX3GMy5vJZgFecOel0Vb13S7cbA9G0Q9SDXB+vXn+nrogFVuGyoETfuYBoZe8mgF8Zz3elK/7HKz/TNcke+qSLpug+FOolLKa8ZrA4eWkXLC2P8lRwwi5YQ9brBxDc820KvG3Pr/uO3j79Wh/XCqTdCGY6ZPZ8MFEtXTnGq9U0VrjC3JNy8UmKTIuvG+3Gxsd6wWa+7TC178EP2KmXirMpCe9J14LMRVhz8FH0IJ2aIaenKpsKSsq/1X9zas1A5jYpmXGaiRiqp4DWTLiVaSLZg/PUGNtd16nWI1W0JiRVmFp+1EKbPWpHORroAVMMGqwfGKDsRI6QLwO4pXbVfOLuCeswZHaQ7wsdKje0xoszmRkAEpAtAk0C6ADQJpAtAk0C6ADQJpAtAk0C6ADQJpAtAk0C6ADRJddJ98c0zf3FX3zmhAZ47vDEGePn6SXekC2ZE52whFkY91GaA/Owv9nYYi12sxGI0dz8w2SlhbJ/XUVj5GeOxcmXs7FXWD94NmkUU3c0loe2zeG16d+3Vka4UtQ/KtHfITGKKXm1hVi2I71dmVzWwm6rXLbXyC37KfAsjGFrCypBKCHsywXGdHqVtRyK/G0emW6kwz6adkTSUWVjOAIafHarNuTfILq/YDlCWsrIBNO/arCO7UlLSLUhirGblJIVU/9REiZrV+er3MAuJLrnZvQ5PCM1lZbs8a8CqICdzWsu0Mi1dfwe5J+rYxHcVecKX0sJywTOd4DlK32DCNLgKLBto8su5a3K10gonId2SJES2p9K1THBZD2IYOFVuOaS/d39fefdm90lI125tlqn0qgj4iIV/s7vrpHRFr5fMW26eDSvto6R0h+Om3bY3Hll/L905f9GIDkzJKrBWz3k8xdItScLONKsy1gH35z0vGarfrU66eoQ8nhoDfHT7Qff5+KuHU0R2TRgKXZfMWBBTSYkJyBDanOsatrJ+P1Um3TEbwxdt8G3WJ20z7BFvGGtbNzgEOKze3Y313D3Dv2ujjkLpKrRRfkYSPEqrpzWuFE8Obkpcsam9OWDuPy+8cWMZzHVdGYh+iA6Pz744lu5DYWf3uomJbpl0RSUOohzD2w8Ue+ScfYND6AYsjejwwVKuc9dyolve65YlMZ6TaxBU8mo27PW6qtutTrr9l/e/uC+k+9k3j7qfT59NR759ckpiiueNy2mgzB5isiDF8zByeiQPBuINtJua65ImY/lSMlYvtNGf7aVF3iApJfMmamKatTPlJu+aFrhXKYF0S5PwKlgN82iG3KF43b3uNhiPN15u/fIU65vYb1lnC7mWm1im8ie7Km/D0mOYZ9kgrFZnSVe2F7ZY59/gVCj1S7cva7b6nnfXtI6cSvGlW5qEvWggemu9Bu308iq2+Uj3DDZPMdu0eMz5i5VjdOZc164c9bRQqYupU5hnb6kxIV39pB+OxDc4hm1BuobuMu+a15FRKa50i5NQnbSxDkXCWDNg3lp56vOSLgD1Y85yyq+BdAG4aErfv5nzckh358hxUhMDUNAckC4ATQLpAtAkkC4ATQLpAtAkkC4ATQLpAtAkkC4ATVKddOkR+t+x+3+E3X9//vDGS28dQ/Ngn6lLut33/v/Wjz/vPnq6HDQ8Bvvu9Nm9R0+NfDv7gcXuU2EnMPzsL+a7Vjx7XWr36m+a5pjbVRN7mC/XN5W+HbF3/jI2nsTVpPYdTTsIc8qT76fhpilFta+tmlSOg0Yjzzawm+rW/cdL7iuj5y4X6pPTZ0amRfnQpqsMqeCbSt6gtGKxn0OO9e9FGvrG1ZSQbqo8pUWua5OgDrLal88LkV9S1kajMc82sofZPPLah7fH71evn7z+yR0eJLR9le0SvqnsG4we8jKJwK71XInvIiHdVHl6ZnZlta8bgmuEmyhGbgBYv+UQPdL3t69+8KUOww7arY31KbQIpt/6m91dJyvPN9cNLO0z8sxCHV2yb6pIuhek3fguUtJNlKd3g0W1b1tiskS1hT39bZ5VsVYt3X6K+97n97xrpx+2DAyFHsE3lX2DQ4DQN1VF0rXvIi3dsDzz5rqJ2jdGX4HNvMixf1ZGW7V0x4XlHjrjFQtXvgzEo5AOj8++BE9Z/ohOPHcTE90y6YqRwiDKMbz9QLFHztk3OIQOp6wp6fqi3xnxXWRINypP1T2qsZmZE2eiO7GDXlfFW5d0uzEwfRtEPcj1wfr1Z/q6aCCeNy6ngTJ7iNHi4NXTtwr4pnLvRBWIP0PeKYXVZD583fIUN2FNuOyc0KpM9LrBxDc820KvG3Pr/uO3j7/Wx1eVKJbx2L0ewTfV1r6pXOkeqdcf50XiLni102zllOeGve4ytcrHD8mHCA/rnFVZaE+6EWxKYrZpMRiBb6qtpBsU9rmRvgta0rZg3PIUIxYWPL/2dSFKhU7xWQ9qfdaKdF7SBaAGNpj1J56ZRoyQLgC7p3S1vQuftzo4AenuHLlKdP7vS86J2dzIPIF0AWgSSBeAJoF0AWgSSBeAJoF0AWiSeqX74MnpO7/+3U9+efOHb33afbov3c8H7B9zArC/VCrdf/2v//7Tfzj5wd/+m/h0B7tT55cfAFqhRul24vyD138zyvVHPz/+s78/Hn92p6BeAKqTbjckFv3t9//muDsu+l5r5DxtIZhMsa4Yuwq8jbjGbvTlECoyQljq3ctO0mIrbHq7c3wjZtLe7uIwkjjbusQccyV7v/cebuVIlsAOGkx10u0mtGKQrKXbfbpgPCa6617sKpPbQ20byMn0o1y6C+0Iykw6Z3tcwY04Scut9eruk1qKSyzHY9Y+6pWgzarU03XrBlOddH/8i5s50v3JL2+yiKIN33nSnY4XS3dhOIIyk85o0yU34iSt2s2upZvhMQvS1SMhNlLavsFUJ90fvvVpjnS7YDym2NL9XKU7nLbtNLfpdRM34iQt7cd4pnYh3bTHLEjXsEwklbKDBlO1dP/w7z7pdPvwyZkr5pR0x+lCchCy6wHzFFxXhVET2VPd9I04SdNUzEnpDqRrmKFz6e71VDeW7o4aTHXS7UbCnTKvvfGbvrPt6L786OfHiQHzwPpewyGis0w1FmKZdGlodeUGve5mN2L7r7B68B1Jd3zUjefQ606Y0jX0uk2DqU667/z6d3/1L//59bdPuu9//o+f6Ve7zjIVRbTY3AHzgCqvqFHqpcFgYam0Tcc34iUtPbmoDO9EuuujjscsSNcrwZ01mOqk++DJ6V/+83/8xT/9uyda++UQW4sVz7JS6YqV+yPHv9F4UsrJF1veMlXmjbhJK08uJS5szDC2dNetkPyCdNfoFWb6jm43DaY66S7Vlgzx8bZk0LFv3M8kpbvkz0bp942cOHQdQZlJmy6ONrwRsz9dHXF9JpmlYZEpXc/DU9Ztzhr71foyqrXxV26DqVG6S2yEBCBFpdJdDuYHP/4FzA8AMKhXuvuBXLS42Cni5aYOtgLSBaBJIF0AmgTSBaBJIF0AmgTSBaBJ6pUufFMBEFCpdLElA4CYGqUL31QAJKlOunvvm8oMY3mEcvcMuxsrsgsErqe2BL6p9tE3leeI48rBgbIjMnN1pDwhJXIlpQvXU1sD31R76JsqkO4RN+ALjOwS6aQMg+B6alvgm2offVMF0uXjrMg+Nk4obdPHbuUIrqdKgW+qffRNZYaZ0p3Ee57SJU9CuJ7aAPimWrFnvqnCXnfMM+sZI09IFjmW9HA9tQ3wTbWPvqmS0h3Ee+DnyhiJiTxnOMGA66nNCWoEvqnm6psqR7rxki/Nrw1cT503fo3AN5WOKtOl07J231RmGHvuZE8+066g4HrqvHFrBL6pANh3KpXuEr6pAAipV7r7wbl6h4LrqTkD6QLQJJAuAE0C6QLQJJAuAE0C6QLQJPVKF76pAAioVLrYkgFATI3ShW8qAJJUJ90tfFMttcufAbI5YbB1lXCb1Ck+dkDHn7MXP9dpVpCE3scaRqJvW94+nFGdJ8kSk7W8z76pVpguf4RnoKMDvhtcmHGE0jXiT0q3wGlWThJq/7oViZGHyN4Azqh2DXxT5fumWmG5/Akc3yxLpWvFn2rWkdG7obp0EoYMt5UunFHtGvimKvBNtbRd/pQZncfSNV0KFfW6ceo5SUxuePxI0gnBGdU5A99Upb6ptAuRHUrXdimU0ayPcp1mBUnImW4QSfo24YzqvIFvqhWZvqnsvnZ30nX68tweqdBplp2E1YPvSLpwRrVL4JuqwDeV5/In1m6qpNIuhYqadezNJCcJ08vCTqQLZ1Q7BL6p8n1T+S5/qCeY/oy/wux7pXLjz1imYktMvtOsvCTUZHd30l23KvIL0t0Q+KbK9k1ldkZcg+aEwWj3NCwd2Djxp/1CZTrNipMQC87BirNFpnThjGpXwDcVNkIC4FCpdJfwTQVASL3SbRO5CHGxU8TLTR1cKJAuAE0C6QLQJJAuAE0C6QLQJJAuAE1Sr3ThmwqAgEqliy0ZAMTUKF34pgIgSXXSnZ1vKtO9kOURyt0z7Ebv3IXcogzXUxcOfFPNwTeVGWB18EDZEbn/pT7piCOyLoDrqQsHvqlm4JsqkO4RN+ALjOwSiaQMg+B66qKBb6o5+KYKpMvHTZF9bJxK2qaPZfkIrqfOG/immoNvKtO90HTVJN7zlC5cT10s8E21onHfVGGvO3znPWPk2SjjLuB66tKBb6o5+KZKSncQ74GvpbIHEFxPXTrwTTUD31Q50o2XfKlnIxu4nqoN+Kaag28q072QPReyJ59pV1BwPVUb8E2FjZAAOFQq3SV8UwEQUq902+RcvUPB9RSYgHQBaBJIF4AmgXQBaBJIF4AmgXQBaBJIF4AmgXQBaBJIF4AmqU66L7553B25+s4JDfDc4Y0xwMvXT7ojXTAek7drNNs11BnUYxO5XFsoONtThTEQ9kxsg97uy72KFFTNGB/fy5L0RlKSxBS9akCRKcl4mRlXZLpal3R73Y6fMYD5k+dbbq13q2c4mPLYNBwKnVHR5kWkG3vVAXnIUtROYnKrxvFPlpJuQRLEHo0mPFnprp/l3B8ZeRZxUzfroBRvXdIVEu2/jKd0eIJ6uqWkm/LYNB4KnVFxvQ7eLmB9sxO4dtPunbyq8Z6kG3iQcmufZ3uSnjjvO0eiPo8sWy8VV3XSFd+7v6+8e7P7lEiXDqwic9nQY9MywxkVG8GtypaP6cB2iA5MySqvalxHBbF0y2rfyrTRVcomx011125M9EErsuqkq0fI46kxwEe3H3Sfj796SGKikxAx5NUb9nM8NkXOqMxZzXqCAuHuEO7Di3V3+VUTSlehXRFk1T6N0phCWXkRT47+lHnQjK1G6eov3eeFN24s8+a60TBLHgw8NqWdUZkODjBc3inmMLKwajbqdUtrf6n9sRid7ha9roquOun2X97/4r6Q7mffPOp+Pn02HfmW2e5KTy72OEsHdj025Tijki1kfBxgkWpX9MWt12lLqsbTbiDdTWrf6mKjXtceirvj87p73S1Qs/vI8VKGxybXh5CXkFxhhnp3g34bUF41sj9MrjCXJmG2MuuRwQ+ZvbzT9ask5ild0vWJ+YxR0nK9f1ibEHVBnVFZCemRzllqu7i1PUfrrrhqhkDOkge7gq+BZCahOumx745WmJe0ecpY5cHKV5gBmBXWdHdXEUG6AJwj9lC6kAZ2UwEAMoF0AWgSSBeAJoF0AWgSSBeAJoF0AWgSSBeAJoF0AWgSSBeAJqlOupv6puqx/Q/JLcz6ONvwIk1/tBWJtTt62jGukxN7Yvtt6xsW2X5jm9o17LBqDCGtHehVDeym2sI3VZb/IVLx/ga1hfZINF4tqzC2FjH9DQX2oyCN1K52ntGWwyqiYNIy98o3VZ7/oaPYZ9X6hPJIJC8OYnDstHL8rYAcIk8KVt15DSCvwWyVhMi267CKnfes2iq3HNLfr2T6psryhCBNOJ2a0x6JxjSKpGt6dtjJdvS9xnekYNad0wA2cp1RloSdaduYyFM2M+Odp2+qLP9DSZ9Vnkei8Zya86gYzLnuGP7MDSW63C2ZlOK5vZFDH6M+shqMVbu7dVg1XGpbj++Fb6qMh2g00rKiUVEWD5jloAzOM3bDUPKecnO8SW3U65YlMZ5LOaxaXzi6Z7GlK6+sTrr9l3LfVDn+h/yh1hSJ87hdny2UrsyVPc0BpSzm5bCK5ccditfd625Djv8hMhGxhOd6JBp/btfrQrq7YjELh1XTArPTMvfDN9WKtP+hcdohpjRrN5qiqPmRcK5rO5IUNQfp7gqtuyYdVpE2ZEyA4ZsKgJpwprul10C6AFw0pW8IG9hNBQDIBNIFoEkgXQCaBNIFoEkgXQCaBNIFoEkgXQCaBNIFoEmqky498umdh6OxQfd9PPv84Y2X3jqG5sE+U5d0u+8/+9VvqY3u3UdPl4OGx2DfnT679+iple9L902l9r2wHWxTTHTbuYrE9XUkDM38zdIzpr9xZY7pWVkzbzLqwvUl3ItYbmtxq2lp2CPqHFuXOWcb2E116/7jJfeV0XOXC/XJ6TMj0xmuhoQHILu9G86HxquTlkNB0xEmh5axuBWzY6hmWLzth3xXN36gjCnzpMutjYajXLqWP6myalLPC5Ff7qxDRmyebWQPs3nktQ9vj9+vXj95/ZM7PEieq6Gj8/ZN5Tcde9N5uk3QZF3pRjc0MyZbXTaayZPumZcSWYnXDg8PTOmSEi2uJm0yZhvhpv3pEAPA+i2H6JG+v331gy91GHYwy+mBtNZ0pL6Nb6rMXjeOxMtzKN190S51kaHtWlPSPVIG1f1z2pCurIXsajIe0jJRPh1job2zKtaqpdtPcd/7/J537fQjy9XQBfimCue66ylMMhIvz5Dukt7mJN4S6fJR6HCkaK6bqCZjxBbYzIsc+2db8JJBl6n6heUeOuMVC1c5vS7v9dI+LlSUW/a65LIruZMo7acjlG6xGWiDyL6O96QZ0h17yDGs3etaIndy4kx0J3bQ66p465JuNwamb4OoB7k+WL/+TF8XDXjapYUuFopM4QlokBzpqoN2vmzfKKk8h9J1H14zg994L94DOqz0ioXPG+kM15Pu9KuomhK9bjDxDc+20OvG3Lr/+O3jr/XxRYarITIjsSpDzkZ1n5eULpuCsbcCi8kRUUmbYLOocIV5L4SrS0wsEbvlr5RmLtxv1usu5bpwONdVDxEe1jmrstCedCNor2mPSMea5bOX3fmmErnwptdsyCeDe3mW0rWTmTn2JF/6qTIKxl/Y9ea6PHhRNUUrzCw+axSoz1qRzku6ANTABssO1tvIOEZIF4DdU7rcz6ZTCnMdA9IFoEkgXQCaBNIFoEkgXQCaBNIFoEkgXQCaBNIFoEkgXQCaBNIFoEmqk+6Lb575i7v6zgkN8NzhjTHAy9dPuiNdMCs+sgXVMKq8AN9ULLjeJFsYFZDofebMF4Gqu9Rmb7vBqAii5hElMUWvtjBPFga60seDvkFDbdLtdUut/IKfMt9HlfimorvIPfuQLCMkYCC1q2wAZd15DSCrwegUSpJYxygTZibERMGkZbbnm0pIdMnN7nV4guk+ZmkYx6Wku9jGN5Wz7xzS3R2RxwSr7rwGkNdgtkpCZHvSY3TeM3Cq3HJIf+/+vvLuze6TkG6Glww+tvLUstjaN5XdX0O6u8J3mGDWndMAshqMPlCShJ1p++nuKZt5CqjZN5UeD5u97ke3H3Sfj796OEUU1oQ13+DzE8N0U8cY2uvKqS6r/RzpYqqby6QU1d0Zdec0gKwGo6qkKAkeJYlCGvnSOhdPDm5KXLGpvTlg7j8vvHFjGcx1Mx6i0UjLimabrnLBHFCh190tQ3F5ynXciXi+guzIrQNlSYznhMG/M6WaVjJt6corq5Nu/+X9L+4L6X72zaPu59Nn05Fvn5ySmLyqkG5N7KHWFInzuF2fLdLblByku1v68tI+fqy68xpAToMRB0qTMKdPnk39kB93KF53r7sN2s3JJfimWpgOqCDdXbOqSPafDNy68xpAVoNZ0ghKk0gO7EhrsVumHJXPVLpn0MeivZI8TjvElGZnvqnoUX90lhUV8NG68+rOawBjoLjBTAeKk1Cd9Nh3M53r8d101O845iZdAOrHme6WXgPpAnDRlE6QGthNBQDIBNIFoEkgXQCaBNIFoEkgXQCaBNIFoEkgXQCaBNIFoEmqky49Qv87dv+PsPvvzx/eeOmtY2ge7DN1Sbf73v/f+vHn3UdPl4OGx2DfnT679+iplW/b1ZC1O1hsG1Y7ivnuUctixIthCq73MBdFJczKnNzuG31RqC3hnqEH8yZj7g9f1Yn5/3UTrcVrWsM5btWkcmxd5pxtYDfVrfuPl9xXRs9dLtQnp8+MTGe4GhIegGwFGM6HxquLvGQstvRNZVqEGne6X6yK4oAXaLZ0ubXRcJRL1/InZVaQ17T080LklzvrkBGbZxvZw2weee3D2+P3q9dPXv/kDg+S52roqCXfVK50o+zPnslWdyrSbOkeHIpyW50+PDClS8o4LV1apbrxuEa4aX86ZAxWv+UQPdL3t69+8KUOww5mOT2Q1pqO1GvxTRVJd3+1S11k6KlFSrpHPET/48iUrmw5oXRF0zKaDkuUT8dYaO+sirVq6fZT3Pc+v+ddO/3IcjXUmG8qSNdiuvFJvCXS5aPQ4UjRXNdYRhHDd8OJg2czL3Lsn23BSwZdpuoXlnvojFcsXOX0urxDTHZ0W7m2WOzCN1VKuvtpkS/7Ot6TZkh37CHp4qE1YDZE7uTEmehO7KDXVfHWJd1uDEzfBlEPcn2wfv2Zvi4a8LRLC12sIdnDXQ4NUuqVZkpu99J1H1WzhxdFL94DOqz0Cko6jjm09M7LdfyVHDDTppXodYOJb3i2hV435tb9x28ff62Pa5cnrfumCleY91S4uqzEEjF/s0dLSirNHBRt1usu5bpwONdVDxEe1jmrstCedCNor2mvDY41K97UXavQN5WQrjUH20Psab/0U2UUlb+w6811eXBVAV7TSq0ws/isUaA+a0U6L+kCUAMbLERYbyPjGCFdAHZP6QsANtNSmCsbkC4ATQLpAtAkkC4ATQLpAtAkkC4ATQLpAtAk9Ur3wZPTd379u5/88uYP3/q0+3Rfup8P2D/mBGB/qVS6//pf//2n/3Dyg7/9N/HpDnanzi8/ALRCjdLtxPkHr/9mlOuPfn78Z39/PP7sTkG9AFQn3W5ILPrb7//NcXdc9L3OyJlsQTWMKi/GN5U4o42E1Xbmvd6TPEuC1kUCbNPGKpRuN6EVg2Qt3e7TBZNxHdXgm0qZ9bA6WoR+lcBs0JZevKls2cZWVCfdH//iZo50f/LLmzwm27OM70DILZTFNr6pzGxI2zHqDAXSnSWxx6kt29ia6qT7w7c+zZFuF4xFVIlvKjsbymLb9qsEZkPskGi7NjZQtXT/8O8+6XT78MmZK+ZtpOtPO9UkYkvfVHY2mGuVqf8djTsh3bkRSnd7/2crqpNuNxLulHntjd/0nW1H9+VHPz9ODJgr8U3lSlcbZ2u/SmA2RL7EduX/rDrpvvPr3/3Vv/zn198+6b7/+T9+pl/tOstUlfimypnr0gjUqhWYA4HHqZ35P6tOug+enP7lP//HX/zTv3ui9V4OVeGbSmdDrzD7fpXAXPB9ie2ijfVUJ92l2pIhPtGWjAp8U6kzgZPdpVY6mAWuL7GdtbE6pbvERkgAUlQq3eVgfvDjX8D8AACDeqULAAiAdAFoEkgXgCaBdAFoEkgXgCaBdAFoEkgXgCaBdAFoEkgXgCapTrovvnncHbn6zgkN8NzhjTHAy9dPuiNdMB6T5fbpjNW2ZtdQ17fg9Qw/rO2p7llqnOvHrLMjdrr2VhPp0twD9B5g7nNE+nxK/Wti25lZ4OCiLIkpevXvdSfjXd0qxoP+P9uuTbq9bsfPGMD8yfO9qsFr8p+QStOcpOMox5+Q+w/mM85mxyysA32jzn1Gald7jrmmlWY5J8tyZqZTKEliHaNMeDLdnf41p/CaRgwExwZR9//XFRLtv4yndHjCqvgO9QPy2uHhgS6JCc+YdimfjTuTrhszPczrD8qdiDwmWD6fPOdkec7MtkpCZHuqz+i8slKd8luzlwz9vfv7yrs3u0+WdIXPif7HeCjTcZSKc7lz6ebEvD4RWWzuJ77DBNPnk+OcLMuZmT5QkoSdaaP/XPrKno6r66qTrh4hj6fGAB/dftB9Pv7qIYlpKD7diyakaziOUqfc2ayK2HQmlIjZmYkN4wh0uQLu4Us97JZ6KGOUb5YzM7U8UZQEj5JEIe3H6bhdtBWSjOx2a5Su/tJ9XnjjxjI11x0VuDacF8IqcBwlTp1Hr2s9/bXLBHtQt+cM5ekp16kROdEt73XLkhjPieUVK91pEcbrddWV1Um3//L+F/eFdD/75lH38+mz6ci3zHZXFvCh8XwsnOvyJ94upWvHrH450yLQF6ix+md0lTQUbQA5zszEgdIkvAZn1umQH3coXnevuwWy+Mw6Mh6B0QqznDUbwTLOZsdsOi6CdC30+wSj6Ix5EJ2JysaQXGEuTcJepuCNxZgip9cwe2YpXbVav8F7Xf5ELpKuiiURszGnmk5CuiZad57PJ/1uR74fSixM6FWUzCRUJz323ayh6qqfjvKhc80rzADMH2e6W3oNpAvARVP6xs+cl0O6ADQJpAtAk0C6ADQJpAtAk0C6ADQJpAtAk0C6ADQJpAtAk1QnXXrk0zsPR2OD7vt49vnDGy+9dQzNg32mLul233/2q99SG927j54uBw2Pwb47fXbv0VNt9Negbyq1T4bteJt2wdJt6on4bUOk6O6awqpo24x2CE629SdbiGM+XVbsy9jihKVjbomUZxvYTXXr/uMl95XRc5cL9cnpMxVG25IMR6/U7JsqaGrCG4RjmagOOoZt0d01xepGDpRxZJ50ky1EWOT6zhLkQWacIJ8XIr/ETMgwCzTPNrKH2Tzy2oe3x+9Xr5+8/skdHmTwKcEKYlG9byq/qdmb1PMeDUnpejE1wGSra1lOJqSbaiGemV1xsfstJDJyi842YTlEj/T97asffKnD8IPrm5Tmr9cq902V2esGUYmDrE2HGWtUu0O26YgpX7pxC3FLrKjYjYeuTJQb87HQ3lkVa9XS7ae4731+z7uW/NJWleRIJN2xAgqkKyY47pTSfWbnSHec8ohewo7fnHLNWbpUvCXSjVpI5lw3UeyGlXVgM2+Yk9tnW/CSQZep+oXlHjrjFQtXQoFnd6sV60o36HV1i9hVr+vkST1c1w0kb+QmeuqUdIvNRitA9nW8J82QbtBCXKclJcVulesOel0Vb13S7cbA9G0Q9SDXB+vXn+nrogE5MW3EN1WUqJXLZPzsHqOM2QnVD7+RXrwHOeWZ00JEqQSTqaVf7IleN5j4hmdb6HVjbt1//Pbx1+qwLMdWfFOxLNBzi8lxUUkbYrOucIW5SeHqEljwJWK3PPNayGa97pIVu/FQ5IfkQ4SHdc6qLLQnXQd/2c6YTJhTFD6f4QVaJF0VSxTzks+vvAyxIaIVP8mSNQdM5aEd7Em76CutG81qIWyuy4MXFXu0wsziszoOfdaKdDbSBaAaNlhGMEbZiRghXQB2T+nyPZseKcx1CUgXgCaBdAFoEkgXgCaBdAFoEkgXgCaBdAFoEkgXgCaBdAFoEkgXgCapTrovvnnmL+7qOyc0wHOHN8YAL18/6Y50wXhM/b5PvefkqG7fVEu6bVZvquVbasdAcYRzRht/UXMLaX0wHnE3b5MC9swqTXuHzCSm6NUW5snCQFfieNA3aKhNur1uqZVf8FPb67bpm4pmwLMnETtcG7WS3wVSu8oGsMMPIE0ir7B6WZV5SroFSaxjlAkzE2KiYPLsUFaq1e9hFhJdcrN7HZ6wKr7mfFM5+9QhXR9eiVq5K381wqCHPTe1WBgJ6ZYkIbI9tcLovGfgVLnlkP7e/X3l3ZvdJ0u6TfqmMioS0g0QHZiSVWCtHhvVWlHKAyVJ2Jm2n9aespmnAH5dddLVI+Tx1Bjgo9sPus/HXz0kMQ3Fp3vRhHRpD5grXTGvcee63vTJmOx4U+vxgGFevn9T3RVT4anuztAlLSvLAYYVu7nAUJwEj5JEIY18aR2KtsJNiSs2tTcHzP3nhTduLFNz3VGBZ3erFetKN+h1dUXtqte1TK91C5lSQK87Mty+p1ynRuREt7zXLUtiPCeWV5wp0tRKbenKK6uTbv/l/S/uC+l+9s2j7ufTZ9ORb5+ckphkATfim8rOCqQb09+/sfpndJU0FG0AnnYD6ZYm4TU4s+qG/LhD8bp73S2QxdeGb6qF6YAK0k2h3ydIlYy/1bKP1xiSK8ylSdi1xBuLMUV2enkV2yylq1brN3ivq6STL10VSxQzPeeP5sK5bsuepjZF6072b8MR/W5Hvh/ipe9KtzgJ1UmPfTdrqLLy6VE+dK55hRmA+eNMd0uvgXQBuGhKJzzmvBzSBaBJIF0AmgTSBaBJIF0AmgTSBaBJIF0AmgTSBaBJIF0AmqQ66dIj9L9j9/8Iu//+/OGNl946hubBPlOXdLvv/f+tH3/effR0OWh4DPbd6bN7j55qo789902VysY8sCo6MNxYUG8y6RbCCpxb8CSqVW9N92xZWDrmlkh5toHdVLfuP15yXxk9d7lQn5w+U2G0Lclw9Mq++KZys8HvpXFWt3bACyhbuskWIixyfWcJ8iAzTpDPC5FfYiZkmAWaZxvZw2weee3D2+P3q9dPXv/kDg+yKsf99k0VZWM+ZoKTra5lk5mQbqqFeGZ2eU9kz7I2MMJN1BRvgvVbDtEjfX/76gdf6jD84PomWRkd7ZdvqjAbs9HucCN0xJQv3biFuGWYrFZhCCzbmUyUG/Ox0N5ZFWvV0u2nuO99fs+7lvzSVpXkSCRd2gPmSldMcNxJpvvM5k9TNR0ts9d1fArMXLpUvCXSjVpI5lyXVKs10zX8YAQ284Y5uX22BS8ZdJmqX1juoTNesXAlFHh2t1qxrnSDXle3iF31uiwr61ZgiHA8sH2vOw+LfNnX8Z40Q7pBC9HdozeZ4gedie7EDnpdFW9d0u3GwPRtEPUg1wfr15/p66IBOTHdQ99UUTbsFFuE31ov3mkVKLjxnBYiyimYTImDtGklet1g4huebaHXjbl1//Hbx1+rw7Ic99A3VbjCPBPh6nsXS8SsSmVZp1vIZr3uUq4Lh3NdZ/0zcVZloT3pOvjLdsZkwpyi8PmMkk6+dFUsUcz0nJflxFzXaDJRio1jT+NFX2ndelYLYXNdHtysVpITNvWOVphZfFbHoc9akc5GugBUwwYLC8YoOxEjpAvA7ild0GczJ4W5UgHpAtAkkC4ATQLpAtAkkC4ATQLpAtAkkC4ATVKvdB88OX3n17/7yS9v/vCtT7tP96X7+YD9Y04A9pdKpfuv//Xff/oPJz/4238Tn+5gd+r88gNAK9Qo3U6cf/D6b0a5/ujnx3/298fjz+4U1AtAddLthsSiv/3+3xx3x0Xfq0bO/b5PvefkqHrfVMksudupQa2kalxYSci90+NFUTzVSbeb0IpBspZu9+mC8ZhWlhvt+abKyJLrhwlUS1jj/fkO2/orbSLWU510f/yLmznS/ckvb/KYVjfZnG+qrCwRe7IlpNsEUVtaDsYElsVBy9L94Vuf5ki3C8ZjWt+kYdOc8JIRmFMzhe3aS4Z0rRJliXbFkG4DRG1pMgOyDXtnId0//LtPOt0+fHLmijlTupHnIdfBzeT3JFO6YmLqznXX0ZVK18gSMwaFdGsnlG7gUiE2zK7cXrcbCXfKvPbGb/rOtqP78qOfH2cNmIfm3oxvqoIsDeKFdBsgsy1t6A6lpzrpvvPr3/3Vv/zn198+6b7/+T9+pl/tBstUKc9DFfqmKsnSQvhhAtWSqHG9lEzCNSvdB09O//Kf/+Mv/unfPdEGL4eSnoekK5TECvP5+6YqypJeMAeV4te4fFaL3y1Ld6m2ZIiPsyWjVd9UySzFfphAlbg1rkdZ/EiWE7KeGqW7xEZIAFJUKt3lYH7w41/A/AAAg3qlCwAIgHQBaBJIF4AmgXQBaBJIF4AmgXQBaBJIF4AmgXQBaJLqpEuP0P+O3f8j7P7784c3XnrrGJoH+0xd0u2+9/+3fvx599GZsW6v4THYd6fP7j16So+IraHcr8T4M/BdYDgBCtwF5UeS3sDMIGm6W1lDbzeTbVnk18q5tXaJnXgVltL6Em4yYBR/cXVHZig6dXJ9A//p79b9x/1BEewuF+qT02cyDLs5WR/DyYTqnNabMuZIRCJNIVyRKJ9VxErMMy1KNMqUX6vEP3Vth/hmE6WUdGkmLGx9DwryIKtu+bzwzDdJv8PMP1v4/7rmkdc+vD1+v3r95PVP7rAQrJ89a5EHU6v0jekvXLq+WDxRxwa9Kekm/FrNS7ruzaZKKeHSjF1PqrOsunVZJ1ykiB/q+tql2/e3r37wpQ7DD8qbtAR16dIVA3meiHki4bwqKV3eS89cut7NpkspcmnmmnwWVbfRbbp1y+13p5zy0FVLt5/ivvf5Pe9a+nMss/W9j7c6lYWYnPhTFOngIDChTEZCD/oz3TLp0ntNSZe259lL177ZjFIKXJplznUT1W0UtVm34nnAc8FiqFq648JyD53xioWrM9b1QYfHZ18iK/mL7XUTE90y6Wb3usN31bnoW2uX+GZzSmnoIa0BjeyTN6huo9Mt7HVVFHVJtxsD07dB4/cxWL/+TF8XEYaBMntM0Ru+9AFzIN5Au8FcV6XIBljkVN+e5cLILKWrbzavlI48l2aibsZfRdWd2+vqBVcvhrqkm8Ot+4/fPv7aPNUvT7EHJPt96dINJrt9e2MtZGog7gqz+EUXo2VmxKqpdWvtkrjZvFI68lyabdbrLuVicd5cVz1NvH6nPelGiPcr8ndCdc77uDLpqkhEeN6KrPwb820WsdECrHO6YcmHwIylaz0J06XEfnhzXfHYzK7uxAqzGvLLRtDECjMAM8Sa7k4knqLGxZAuABdEMCvrTgXKNYfWkO6lwIdgrW9DBJcBpAtAk0C6ADQJpAtAk0C6ADQJpAtAk0C6ADQJpAtAk1QnXfimAiCHuqS7sW+qNe5eX77d1DIDsZg2TuidrXJTxZXJc1Vyq4WwQ8TWjBL6EuOVlm3fV40bqjEd11yMnm1gN9XmvqmWqnzYPn+5sdyyDzGiI5cbthzDgdA4wYnatu+R5hNAsyqxtt1QcYMiGbF5tpE9zJv4piqyaz06SEvX2Sx+vtLNjWCf6QuIW0/mW9XX4IbKt1aKzjZhObSJb6qE2bI0qaJP1oxeN0hn19KFdhMM5UNHVSUOMaTx7bULd0Pl+sEIz6pYq5ZugW8q1xFMXw50WiILyp3rrmccjn+F6YBrWZvhEQPSLUWYRw+2sPm+bPRYzDPN9ea6pCu2GlXCIYaoYJFj/2wLXjI28U3lSlf2uqIzDZep1lFQEV5IrxvnaM9RNukHrbmh2qzXVfHWJd0tfFPlz3VZyKR0xSXnLt28DO0xvMQWDbqh8ie+4dkWet0YzzeV9GjirzDTeUm0TMWWILyn+s5XmCHcGFnCYomYOxCiBSqVdnluqORDhId1zqostCfdiPC9Lrlva5YURub30uFc14nbfa8L2aaxVwdackPF4rM6F33WinRe0gWgBjZYrzBG2YkYIV0Adk/pe4IFfFNtCh8o7XJL0/nFDPYaSBeAJoF0AWgSSBeAJoF0AWgSSBeAJoF0AWgSSBeAJoF0AWiS6qT74ptn/uKuvnNCAzx3eGMM8PL1k+5IF8yILtzDbJ4JDXWm3RR6u6vcaXEl3zfVIvSuRMIo7wkp10o5qTeDtgXjrjG8IrLqf4iPF0zSRUlJElP0qiIny8DgsuhgA7upet1SK7/gp8y3MLvxLYeEgVaGl4zFTn1TLULvSkOQDhVzyrXSvMz0pXaVuZ9VRGYt91qgFlqrAktJtyCJdYwy4WnrsRmAmxslDta9h1lIdMnN7nV4Qr69LpNbZPRnndiZdF3vSlPiPOpFhmuleUlX1KlWrllERi1bbUOH3yoJke1Jela6QwDTlskzcKrcckh/7/6+8u7N7pOQri1B01SaaSav1w3S2Vi6fFwgDaxXPyyra8No27QmnwWiA1OyCgzTY/tZK0p5oCQJO9P+498yDlyn43nJUJFVJ109Qh5PjQE+uv2g+3z81cMpIrt6mE8TcyoSzXWPzsk31VT9tt2wbdg/XKWHEly6c5nqruBFlfJ94NRyKF1zxaI4CR4licK0z7ft9/tkzINmbDVKV3/pPi+8cWMZzHVd6cpeV3Sm4TLVOgq7QqcINu11x+h5Z2qrmD+G1o/nccVspr2uM4xMFpGa6Jb3umVJjOf0tCcIUNTrquiqk27/5f0v7gvpfvbNo+7n02fTkW+fnJKY8ue6edXqRLRr6Q7iPaDPeLMfkM3Kcq00P+mShQGm3FQRZa1FBtItTcJrfzzTIoA5FHfH53X3uttgPPMq9U1lvoK4MnWh7OT4WzYaq2XOULrGynpWEbFa1t1dYoW5NAm74M3eWt6b6uWdrl/FMB/pnsEmL/K9rlgn1HPMIDK/lw7nupkPe9K09LN5OOKtPPpz3Zm4ujKGmTlFJB7erB9dH3SlW5yE6qTHvnsSoTmlnmpMxioPVr7CDMCscNaYdxIRpAvAObKTOYw5NoR0e+SAZnczxvOLGew1kC4ATQLpAtAkkC4ATQLpAtAkkC4ATQLpAtAkkC4ATVKddOkR+t+x+3+E3X9//vDGS28dQ/Ngn6lLut33/v/Wjz/vPnq6HDQ8Bvvu9Nm9R095vsX23WBfsbGr1d8mYYShxnaSYZtrcguG2JmOLRvZ9MWlNpJ75iHTDkLrwvUlV6g5ygS34FF1xA9q+z5uNaRybF3mnG1gN9Wt+4+X3FdGz10u1Cenz1QYwyzMNBuiIUgAUzB2mF0YD/lGJSznQLMqLtezV0K6Kede0kzXNVRQB5nFgnxeiPxyDx4yYvNsI3uYzSOvfXh7/H71+snrn9zhQQLbS6vcc/aF+/5JzlG6uRHsLZMBr3T0w79NwakxXcK5l2dml5YubQXaO4ZrhJuofW4AWL/lED3S97evfvClDsMP2pZ02sZywDKNlthhzl260G4E9Zuh7VpT0k049/LqJSldYR0sH/kyUW7MJ10umWdVrFVLt5/ivvf5Pe9a8ishXX+qG2rEClNmsutED+luCh9NSavrtHQN3ylcuum5rrK1VV6UZe0FNvMix/7ZFrxk0GWqfmG5h854xcKVI4DIhcF0WUq/IsyF9LrzsJI/D2Rfx3vSDOmOPSRdbzS9pmiROzlxJroTO+h1Vbx1SbcbA9O3QdSDXB+sX3+mr4sGVOEWuH0pGzyfu3QDzx1AFFcv3gO/rn3HMZZzL1H246/kgJk2oUSvG0x8w7Mt9Loxt+4/fvv4a3U4WI13lqlYaEsrTpjzX2GGcANk8YolYu3VxirnI8e514a97lKuC4dzXfUQ4WGdsyoL7UnXIXjJJl7KGX6cEsNpNUfe2j2V/14Xsk1gLw1I51VGcfoLu95clwdXlSRywqbe0Qozi89aCNNnrUhnI10AqmGDxQpjlJ2IEdIFYPeUviRYOLuCehrYTXWpyH2Nu3s9c34xg/0F0gWgSSBdAJoE0gWgSSBdAJoE0gWgSSBdAJoE0gWgSSBdAJqkOum++OaZv7ir75zQAM8d3hgDvHz9pDvSBeMxiV2mwaZiabAb7pEwwlBbMcloA57Yf7EIHSyRMMqBQsq7Uk7qbaDtubhrDK98+EZjHh8vlaR/kpIkpuhVLU6WgcFl0cEGdlP1uqVWfsHPyF6XeXhKesnwdqHZYXZhObQIHSwNQTpUzCnvSjMy05faVeZ+VvmwBzN/StPmsSqtlHQLkljHKBOeth6bAbi5UeJg3XuYhUSX3OxehycE1eAY/V2mb6pF6GBpSpxHvcjwrjQj6QrtauWa5UMf39PD1iyThHRLkhDZnqRnpTsEMG2ZPAOnyi2H9Pfu7yvv3uw+xdLlXhHCXtfDDrM76fIRmbSxXv2wDK8Nu+0CvwItITowJavAMD22n7WilAdKkrAz7T/7LePAdTqelwwVWXXS1SPk8dQY4KPbD7rPx189JDElpOtPdcN2boUps9e1o+dDgrEi6ZjKaHfDVdoEnEt3FlPdFd7QyS8fYz4ZSleh7e8zkuBRkihM+3x7NNgnYx40Y6tRuvpL93nhjRvL/Lnu+ki1vqmUYTXvTG0V84eR411pVr2uM4xMlo+a6Jb3umVJjOf0nCcIUNTrquiqk27/5f0v7gvpfvbNo+7n02fTkW+fnJKYVDUUtOaywfOupTuI94A+5s2uQLYsy7vSzKRLVgXEImRcPqxOPe0G0i1NwmxDrGEYAcyhuDs+r7vX3QJduTX7pjLfQlyZulB2cvwt243VOOcmXWNZPat82ExUd3eJFebSJOxSN3treW+ql3e6fhXDrKQ7UbtvKntmfmVYFhHnhiPe4qM/152DqytjmJlTPmLeyfrR9UFXusVJqE567LsnEVoBSHXJWOXByleYAZgVzhrzTiKCdAE4R3YygTFndJDuiBzT7G7GeH4xg/0F0gWgSSBdAJoE0gWgSSBdAJoE0gWgSSBdAJoE0gWgSaqTLj1C/zt2/4+w++/PH9546a1jaB7sM3VJt/ve/9/68efdR0+Xg4bHYN+dPrv36KmVb75tdTwS7IYIzArY5rNpW4VnWmLttAhSD5IL9mMb9+jlRCbAYhWudFQyrqHcpRPnNlmq+q6OiGcvXpjcgkfVY1RNlg1S5H3KyBI528Buqlv3Hy+5r4yeu1yoT06f2ZleJJwJ9WXi2AYGtS68NQgFBpujgtQTjcy1JjPu0c6JdKYh/000MxhOOMqqiDi3iVJNefaSZrquoYI6yKppsYFLKhatOtvIHmbzyGsf3h6/X71+8vond3Rsi6QzIX0gp9ajTeQl0l2Kp3GWdJfqftQ92jnhpvuWMSmzQaVGctVL181tqlQTnr08M7u0dGnxO21iiNs3AFMHuAFg/ZZD9Ejf3776wZc6jDq4SDkTso4U97qCQukyk9Ac6fI2at+jnZPgzvj5ITnaFdcuXS+36VKVg5Fr1LOXZ2KblK6wDrbKbmxErh+M4bd5VsVatXT7Ke57n9/zrmW/7frbiXTH2Ud6mMrZXLr2FCqSY6l0x5xMmZzkUL907dxmPBDlcEONT5JzXWVrq+axpsxFqlNoufBgn5XRVi3dcWG5h854xcLVUs1SfPcE/PGVu0w1xGXMlUul20ea1euK7t65RzsnGdLlve54i7Jvqoo4tzmlOvSQY1i717VE7uTEmeiScMJXwAa9roq3Lul2Y2D6Noh6kOuD9evP9HXRgF5ndQqdF1U0n3HHmaHzAkYQZ+Ypmpx3j3ZOCue6NMtqHagi4tzmleqR59lL1LmaU7g5EdXElybFlfGEzj3bQq8bc+v+47ePv5ZHZQmNv/UarxyesLE1XzKcKt0aYQ8/i1aYxSDMSk6vVIydg32Pdk7ktCFeYeZLN+5ri8snkdu8Uj1yPHtt2Osu5bqwP+YTR43uwTmrompPuib62TYc4bMU/kTVs1far0mJWz1djnS9V39+cqKW1q3Rv0c7J7JVsLwE06ulVnpNpHObU6rshzfX5cFVRdrVtKQ1ocZJappsPT/12aXR0GYiXQAqwlljjoi7ACtGSBeA3WOPlMPwQXBz1QXS3SFyeFRSdwCUAekC0CSQLgBNAukC0CSQLgBNAukC0CSQLgBNAukC0CTVSRe+qQDIoS7pbuObStl8JPZFiE3iKa9FbBersYfWSIbs0Bi2tkqMq/S2Z28jtNhYK7fT6gvmi1WD2ZaAl+CwaojVqZsxwchqsy7pbuObyrFxc3eYCemmvBaRTaTM3Kg/o5xFHXEnWMRF0RbW+eLenM12okl4D5ZZsSqKZhxW9dF7hpXcBml6IrSwh3kz31TMMDOjp5GmWQmvRSxSYYx1TTqLsuxjWcqbS5dcbTad2DR3rvRFwZ+p+fb3l+SwyvWAYBo4NWE5tJlvqoRluUJbVUpbzWvUa5En3YXhLCrhYmIb6dLWaTUd1z3AvIfNQ1HQIUaJ64yw6j0D3KR0RWXJKnDrincCXodUtXSLfFMpI+nE/n+jPrRptVlytEbM9rG1dPlciR7xjIiJe+jUk3yOTDfIrGazpRtWfd5cV1niJh1WmXUlqornonpT++19U/WsS9Fps9ajdBDleI5J16gSu689t16XDyfye90N7EfbQhmqH9TusMrK1nDUlq6Moi7pbuGbytOLO3i2R0FHntcis/XrNeOo7yNXbTxgFitwmOv28KLoxVuxwyqZC/eoiK36XjfG9k0lqoMtFNgqciYwR47XIuexyUqTP5B5de9qhZmM1u1hsEx6f1aY+UITHR7xMqBL8DlVv2Gvu5SLxXlzXfU00etjPe1J10PeppiDROG9Rb2EdHVnxo7QLlk+87dYYZ7aIZ9rKbl6bxfniF1ooq/0SipV9WJwxYKrUvYqK7XCrIb8st00scIMdsu65V07vOyM7DfxgkP8PG/lvS4AsyRY6F/AN5WDXE+qZu5XbcZA7eyJdAGYG5AuAE0C6QLQJJAuAE0C6QLQJJAuAE0C6QLQJNVJF76pAMihLuleoG8qsQF12GYqbSyl7ae2FTITcCw83Y3TzhEzz3xfTbZp24V5YPr/2zuDHUmOIgyvxJUbz+AngNMgP4AlfENC65NPe/CFR+ABLGFAFngFB2Rb8sUStzlzMgewzQhYgRoJCSEj4QM2yJYZWDe101NVGRF/RGZ1V3dnzPyf5jBTlZ2ZlZV/ZkZ2Rsw5yNEyJoKG13JTgZEXaV/SPWFsKqwT7VTiOs9XjpwqP17kjrKndHuPwHQeMrSMHi8Ym2qk4lqr8XQytlYp3MOkq/zKDpVu3xGYzkSClql4DuEMpANg/55DJ4lN5evkZua9uHBG8PlCo3Q9T7K9pSvdT5fEgtB+pxerR2A6F/23DHYaxa72MEqGyaBr6R4zNpW0SazbrWc3zRcq0j2SrVtYVNIKb+igwE3c80r1LLpiwunH0s3QMqDDQOmqTiBr0b2r/UliU4Wz7sWjR6vNumIRsJZ05y66qINO80C57QbteduVnZp0YOhuE7QMMuKWzbomi76ke8LYVIGte5PNerauM/4fKN2xi/YVgelc9N8yrbOuvKpy637WjVkpNpXb7tBS6W/WnarbVQSmc9F/y4B+6HRNPZqA3c4b8knXQz8mNmMnpKEyrpUe2A6g7Ka5tGZb9wEcSGQFnl21V0CdrdrVjIAy8HYtfYtOJjfVUjWR0jgDCVqmssNslvy686bYYSbkDoLM3ZnKXAA+TOkSciICi2jD2FQOcsmz8uLuSJkftc4kPfdEuoTcNShdQlJC6RKSEkqXkJRQuoSkhNIlJCWULiEp6U66jE1FSAt9SffA2FT2lKryahmPg4vTp+DsK/DxgIdK48MS6oyr47uCstKnMcSnbQ13BcUexkWWwLM00YmP+GEr/n3dhKGayvG83cTdBKepVopNpbw7ysvTGfHSC0AeR38WIaPsx6X8p/Nq8KLCvj73cLuTFTrYCmp4U5AbmUkXPfw5uTVm0WtB/LAV6fYRhko6FFmvBNyPM5xhPjQ2lWhU6HclGkJ98OImtomY5GAsg7qbm3nf0J0rygpIF9TwNl/Pw3ipx3LnVB829KrvIQyV761kkCN8/55DB8emMm06LpKLyQ1Kd7zuuduK0qr9PvLIdWZdW4q6A2s4ZlsupacEnsNybuk6D1uVbg9hqC69OBgGtSCT6bqW7tLYVI7hMQ63oq+jBbPXAy5RpCt4UdAo3SArI11cwzlb4GEcSjefqRs/bIN0ga+855rr2bpgs0At38FmieczH7+fwGG3a+nuH5tKzWTaiR43urJzsFEENrXaw1/N/agtf/22nBoaN+1ycrmrs+74u5xJG6Q7jdaoiZxeVJl1HUN3ZumsqwMFoHz7ku56salUgygNQPvSbuvCabB98Wzet9dF3KxUtb0ayoJ2/fmR35u96uUgftigzfVOw9nCUPmGr81LXu5+1o2px6ba2qdvkC74yGhTGbsZX9REXxCIHuVmZcZnvPWtX7/aNdVD+B3YYa48rNj3RWuTy7OGoYLbld7zudfzSddDTkl2IKtI1w51QhkmX3hRIg0kWaA2fnBWotp+DbFRrQeByFQz9euX+sOWz4oFY7/YgbYuftsPDg1DJfIzG2FmaTWLvP8dZkJy0/TdoQSssis5UrqErM9Sa2TD2FTnQy90EpqRJBOULiEpoXQJSQmlS0hKKF1CUkLpEpISSpeQlFC6hKSkO+kyNhUhLfQl3XsTm6rim+afLAZOnBrlwQrqUt7ZhKGeOiSucLVhHY+xRf66pb+w86Yi1xNRDmxofTfBaap7E5uqxa1UF+NUb0roevbqniPkvwlDPXVIXOFKw2aITQXvJjnDfA9iU7VKV0kSVA+mM84waBlRurPJAax/6d7h2FTe3RSeQ/cgNlWjdMGSwFRvqo8jXaxD40ReTsUJpOtVuN6wwOsd++vqFxFKt3xT2KVUFCpNHpHau2ty7Vq6dzc2VaOt22zRLZbuVJO5ksLftH/p4go3jInWgd7z1/VsXeDwrJbvYJWDJnNQY/+uzrZr6d7d2FRNs659CL96e0hXzrrT0+iJqTfiCrc07DhaT2nxrItE7tTEMXRnVph1Tb59SffexKZqvFXmHFfvQFu3rLLZBOqLuMJtDXvZcWwq926GWTfmbsSmEru84p7ZpphmBnff2z6gWaHFO8yyadzvLLqgUuG2hr3sNzaVd9dUIZ90PeSsZHf4KtK1c9N0pVxei1flz84mCRBDWWH8XqdMHl0G1UMPaLqEqEtgW22t0jujXuGWhhV/eLYuftsPjhubCt5Fmd4d6RLSC9AgiwGr7EqOlC4h6wNX2HH6IDk0ySjdtdDbSEteHCGLoXQJSQmlS0hKKF1CUkLpEpISSpeQlFC6hKSE0iUkJd1Jl7GpCGmhL+keEJsKHF9RbtO++6s6oRofa4Gp5KF35ObDIxrHJH6/Ve9ox41skRNv6UQMT4trL0GUoiy9uJvgNNUBsanq0vUDGrWdWlNOv7f/G37Mvi1kFDkO8futSPfkAauKrgM8MqUP0jwiZDjDvFdsqgbpugGNWqTrOeXefv6iLWQUOQ7x+635358pYJXJ22YgHQD79xzaKzZVi3TlwnaRdKPAEZv2kFHkOMTvtx46A7jCYyde7ZsXSrccShxnIujMCaNkmAy6lu6S2FRt0lVeldDWhVoLpBt0EUr3RMTvty5d4FXvOfF6tm4xFSM7FvUEvUMin2T8WFGL7l3t94pN1SrducFWmnWVIWS2SijdExC/3wbpTjPklPbg0BmOoVukg13Km3VNFn1J94DYVO3SHV9uENAI4GnX7iUHgXXIkVj4fuGofXm6gFXRxokoTOXW/awb48SmWiJdvYXYtMNsw6jcDtJaq2FUEnIU4vfbWcCqSnfTo8mdj00Fvk8LW6tUIow8hCin2NGeWhQyihyHVAGrzEJt3GBjbCpCOiQOWMXYVIR0S7BSZmyqtWCgKdI7lC4hKaF0CUkJpUtISihdQlJC6RKSEkqXkJRQuoSkpDvpMjYVIS30Jd0DY1M5ZyjcGELg1KtM5oWYWvTfa/2YSduyBB20CDxKYwSsoCmc2FqV+re36rmI27m/2FRjrr4jqfh8gtNUq8WmEnGkGgKRuMmm7Bynsa15BUJfm1rMpDJlzVtw0xgBy3kQL7ZWtf4LWvVcVNu5q9hUu+x1fcsc7ndsKhk44WjSRa6X2i+sDHQi/T3d8+hAupvWCFjwQTwX0Zb6y0pErXouwnauutqfKTYVdgH3fJlSeA6tFJtKBEA4lnRx8xtv7HIqw7NupcS5u4ESG6QbRApoqT/IvEPpBu3cY2wqt+2lTXQPY1OJTmaMspqtq6W6SLqgfwvHTbH8goaikW5UJJCufpBl0g30GbfquYjbuS5dsNDw/HXXi00F2161uKyFyKFr6R4Wm2p6P6efdWHRY6dCHWnBYAHKXH3WDZoubtVzEbdzg3SnGXJKe3CUDMfQnVk265os+pLumrGpxFLjvLZuWYK3O6HyUSXaveRgT8uzdT3tLrF1K616LuJ2bnuKy9PFptK1cK+q3LqfdWOaYlOJXdPj7jDf9JO2HVq1dbkpN5XVezRjr1Gyr3P8ILqe4w7zgvrXW/VchO2snkk8hlbaKWJTjTijqR5NvPbOJ10HaXiIJpG3iiFTXoPJdkTSNSWUdxyLWnQpaC2KEu3MKK+Etq4XoMn9hK7/klY9F5V23spHVwOVUFopcGjryuSwXxU1Eaa30rk7v84Z++PzHZIuIX2DzN0Z9KVf/GFKl5ATEdgYG8amIuSeQOkSkhJKl5CUULqEpITSJSQllC4hKaF0CUkJpUtISrqTLmNTEdJCX9I9IDbVDnnOfLqij5/WL4Izvibb8PD9LjfjnNfmhnayaEkJydGwgd+GLMd15yrvJjhNdUBsqhs2NnpTcfhz9uPwLjpqxNnWpdt7tKSUZGhYPV6o+kqHIp0xvJvkDPNesamesQHRm8Qzjy/Gu4h7tZNtg3T7jpaUkwQNu8BJyObs3U3hObRXbKrt/JZ0Ox0oXS/bFunKtfaSuA3aR/Ri9WhJSem/YcEMqQuVznwitXfX5Nq1dJfEpvLe37IFMzB13WzbpKtcNpt7GHDp9jxIPZOsmDHujKWboWErATFU11E19u9miJKxV2wqbaUgb3bRevCiVWOQbaN05z62qIdNg8qU9uC4DfkN3W2ChgWT7hqzrsm3L+keEJtKRjIQ24B2qvEu2tcTZNsu3bGP9RUtKSn9N2xl1q1YXu7dDLNuDI5Npfvk9Pdh0o2yXSJds5NZWmryywPdIY4WLSkp/Tcs+CpHXtKDiEzr3DVVyCddiJ1NxivLpKsMnTBbaBSJ3ORHbz4ih3SUgb//6JlkMrmplqqJ7Nv5SNCwlR1mkR/aCLN3UaZ3RLqEdAScGmIqX9qBHCldQtanalDZ9EFysKymdFdC72YlXpCSJFC6hKSE0iUkJZQuISmhdAlJCaVLSEr6le5n10/feO+jl95+8vzrHw4/wy/Dn8PF41WGkER0Kt1f//Vf3/rZ777+/d+on+HicOt49SEkCz1KdxDnN157f5LrC4+vXvzp1fTncIvqJaQ76Q5LYjXfPvfq1XBdzb3Oytke0BWnT+0hUe/igbGprMORdiy9Lc4ekrksQiUFVSI9U31xukc5HSbKpzvpDgatWiRb6Q4/QzKQ3aaf2FQ79MlUJd1aqKSlx+lIJ8gXd6NLPfLrHjUlbe1m3Un34VtPWqT70ttPbG6bjmJTTXlH0q2FSqJ0k2JenPEyNj1qR2bpPv/6hy3SHZKZzDZOEKkDpetlu4Z0K6GSKN2kYM/EwjSzPWrHXZHuN3/0waDbz6+fhWKuS7ev2FTThyvSDUMlOVUivRNKNwjHg6TrdYDupDushAdlXvzw/d1kOzD88sLjq+qCubPYVNMnatKdBg8QKomzblKgdIFejXYzz7pvvPfRK+/+6eN/Xw+/f/vnv7df7TrbVL3Fppo+XpVuECqJ0k1KEHHK61FTurTS/ez66cvv/PE7b/7BEy3+cqi72FRT+gbpuqGSKN2k2B3mMoIO7FHTn2mluzVHMtQPPJLRX2yqKXmLdL1QSTAkEukft3v4PWr6y7d1ZQfoUbpbHoQkpEan0t2O7gcP36L7ASGAfqWbCsamIqeG0iUkJZQuISmhdAlJCaVLSEooXUJSQukSkhJKl5CUdCfd8kr537F3/wh79/tXfvDbr75+Rc2T+0xf0h1+3/3f+unPf37xzFl3p+Ep2X+ffvnJF/+T9Q4c5Q8NAiSysudJxeXylKl3kNVex6WXXoCozojFlbF+Z2VKcbg2iqoF/4HskmhezcSlo6cRB8LjYGCyqb1XVniP4cYun3bOsUwxXYXn0vXdBP/p7y+f/md3USX7pxTq9dMvTRqnZ6wRBChKUzqFbFWP1T4F4x9xCAWRd+jMadinMjb4hxzowL97v8nq0SPdFdVAsWc0rypx6RXp1oKBaWda/5Xpi8KLoHTOBdnN4R2AOwK+Cxxm+pLudNFe+d6v/j79/rWf/O61D/4hk+CesUoQID8NaHgQ9UIXeCTp7leZ1vgBJlnRw0xdD4jmVSUuvSLdWjAwLxJKXbqqSdGTwkhKJmfvrsm0d+nu5tvv/vJvNo286DXuCkGA3DRwHTNfVeGIAoWsId09KyNdDH23QqDwcoqG8cD2ieZVJS69Jt1KMDBvIKtKV71f1I7TMCpfo66xd9fk2rV0dybuL/78iffZ4i9nNbtGECCYRoSkMckmd/yq2TmNw7b0NaRbrYzTSHNyq825qWf54Kgtzhx2EHHpdemClYiUbt3WLaZix46FMofrH2BqOHd1tl1Ld9pY3lFavGrjCvYM3J3mm0eadafOIrcq5k+ectatViYc34oSg+lIzWVOs68vXVR6g3SnGbLcBkSVd80NUxPH0C3SqY3BPWZdk29f0h3WwOW3QdPvU7Ld/nP5ddEINkQl5f0T27plyrPbuiKl129Via4Id/J5VIoHNvsxpGtLD4ZXaTfiYGCqCaC5AWuiNv6ECRxNKZX5QBXR/awb85dP//Pjq4/NZdQEWqtqODtcumZALQ0wu+Hgda91pLtfZewyGa/9gvlzU27Sus1+HOmq0tVD35SOqn3pBAPbc9bdiiatLjX0ILJpuWuyyiddB2mN3Iyp4RQZ2rr42zan81nTFaefOhWWri19qXT3qowpRTdky9J3lrydZMYrOt/4OeIn9EqfSwRNYJTmLDzQMg2+oKhJZ+3BhZ/ZSrB2gKxAkh1mQnLj7DFH1FdUOkdKl5D1WWoeDOnjbQw7FFC6Hnqts4adtiKdV48cHUqXkJRQuoSkhNIlJCWULiEpoXQJSUm/0t3945KX3uY/LiEE0Kl0+e/CCInpUbrqn3S+8PjqxZ9exf+kk5D7RnfSHZbEar597tWr4XrlX2PfIg+fT1f0uYX6xQf2hLPJtn4KwjlRbA/6jofXYR2cU8VRhSu+b/FRDuv7Y0477zKxJ3wuizhP9YKOzZEfZM5+dv1Dxc0FgZ65oGjVgt1JdzBo1SLZSnf4GZKB7DYwJFL5mqaD4/Ci079wtrXOWHqtbOW709oVrqSxh0rxUZn45o0DXxjdDO1H9PSxWtXja3Ge1nIVOpxjPIjy4gz8ScckqAs1FG076i3dSffhW09apPvS209sbhscEklMd2NUCngRdzUn27hfxt6znu99XbpFxzCJ5wunkG4tzlMa6e7zIJGDAZCu24XqRduOekt30n3+9Q9bpDskM5ltnJBIB0rXyzbslzhmhYjmgPy9qtItx17s/gY9+Y4i3UqcpzzS3edB0NDsFBd3oVrROaX7zR99MOj28+tnoZjr0hW6KD2UFyyYsUWDs91DulCk2FOzqEN5MXDB3bZLt80Crfd44Iwue/xZTd2y4kd4kFvT1j6YkW7chSpF51kwDyvhQZkXP3x/N9kODL+88PiqumAuW8XsQ6h+716E76HN3dz/2Ew5iI45iJwqs663zjb5n2jWnTvUdC/nrLv3g9z2JJ29V9w+RaNR+xndSfeN9z565d0/ffzv6+H3b//89/arXWebym7vTSOZ1ZB3Ea+LnGwPsXXnLGRG1QWzs9Cebnq9bR9FtfT426sozlMu6R7yIOpdq+IaulBUtGtSdyfdz66fvvzOH7/z5h880eIvh7RSpr8Pk26UbaVf3gyYzg7zfEVtMda3qYp1k9m+0l8cibVd63pBPGxDj7/tmsVfSaW76EE25aayWuPI4pq6UFB0HuluzZEM9QOPZNg5bryyTLoFt0sYP1uVFiFSOSWKy6AOputMqqzUoRzt9RBSr/q2ucfLPzwTMSro2BzlQcqrpo/IEdXvQg1Fp5LulgchCanRqXS3o/vBw7fofkAIoF/ppkJvRfRh4zWSuvL3F0qXkJRQuoSkhNIlJCWULiEp6UK6/OEPf/b7oXT5w5+UP2eTLiHkeFC6hKSE0iUkJZQuISmhdAlJCaVLSEooXUJSQukSkhJKl5CUULqEpOT/pIN6F6uGrqwAAAAASUVORK5CYII=;" vertex="1" parent="1">
          <mxGeometry x="-572" y="3530" width="313.24" height="1317" as="geometry" />
        </mxCell>
        <mxCell id="2bjuvnZJrYzHLu6adjYs-177" value="&lt;font style=&quot;font-size: 18px&quot;&gt;&lt;b&gt;&lt;i&gt;service&lt;/i&gt;&lt;/b&gt;&lt;/font&gt;" style="text;html=1;strokeColor=none;fillColor=none;align=center;verticalAlign=middle;whiteSpace=wrap;rounded=0;fontSize=12;" vertex="1" parent="1">
          <mxGeometry x="-532.5" y="630" width="60" height="30" as="geometry" />
        </mxCell>
        <mxCell id="2bjuvnZJrYzHLu6adjYs-182" value="任务信息&lt;br&gt;账单信息&lt;br&gt;（罚款信息）" style="rounded=0;whiteSpace=wrap;html=1;fontSize=12;fillColor=#60a917;fontColor=#ffffff;strokeColor=#2D7600;" vertex="1" parent="1">
          <mxGeometry x="-37.25" y="275" width="93" height="50" as="geometry" />
        </mxCell>
        <mxCell id="2bjuvnZJrYzHLu6adjYs-183" value="时效信息&lt;br&gt;（分段线路信息）" style="rounded=0;whiteSpace=wrap;html=1;fontSize=12;" vertex="1" parent="1">
          <mxGeometry x="75.75" y="280" width="110" height="40" as="geometry" />
        </mxCell>
        <mxCell id="2bjuvnZJrYzHLu6adjYs-184" value="申诉记录" style="rounded=0;whiteSpace=wrap;html=1;fontSize=12;fillColor=#60a917;fontColor=#ffffff;strokeColor=#2D7600;" vertex="1" parent="1">
          <mxGeometry x="207.25" y="280" width="110" height="40" as="geometry" />
        </mxCell>
        <mxCell id="2bjuvnZJrYzHLu6adjYs-185" value="" style="rounded=0;whiteSpace=wrap;html=1;fontSize=19;" vertex="1" parent="1">
          <mxGeometry x="362.75" y="240" width="390" height="220" as="geometry" />
        </mxCell>
        <mxCell id="2bjuvnZJrYzHLu6adjYs-187" value="保存申诉及缓存事件" style="rounded=0;whiteSpace=wrap;html=1;fontSize=12;fillColor=#a20025;fontColor=#ffffff;strokeColor=#6F0000;" vertex="1" parent="1">
          <mxGeometry x="552.75" y="340" width="80" height="40" as="geometry" />
        </mxCell>
        <mxCell id="2bjuvnZJrYzHLu6adjYs-188" value="更新缓行时长" style="rounded=0;whiteSpace=wrap;html=1;fontSize=12;fillColor=#a20025;fontColor=#ffffff;strokeColor=#6F0000;" vertex="1" parent="1">
          <mxGeometry x="647.25" y="340" width="80" height="40" as="geometry" />
        </mxCell>
        <mxCell id="2bjuvnZJrYzHLu6adjYs-189" value="&#xa;&#xa;&lt;i style=&quot;color: rgb(0, 0, 0); font-family: helvetica; font-size: 17px; font-weight: 400; letter-spacing: normal; text-align: center; text-indent: 0px; text-transform: none; word-spacing: 0px; background-color: rgb(248, 249, 250);&quot;&gt;&lt;b&gt;处理&lt;/b&gt;&lt;/i&gt;&#xa;&#xa;" style="text;html=1;strokeColor=none;fillColor=none;align=center;verticalAlign=middle;whiteSpace=wrap;rounded=0;fontSize=19;" vertex="1" parent="1">
          <mxGeometry x="510.75" y="240" width="60" height="30" as="geometry" />
        </mxCell>
        <mxCell id="2bjuvnZJrYzHLu6adjYs-190" value="确认提交" style="rounded=0;whiteSpace=wrap;html=1;fontSize=12;fillColor=#60a917;fontColor=#ffffff;strokeColor=#2D7600;" vertex="1" parent="1">
          <mxGeometry x="369.75" y="345" width="60" height="35" as="geometry" />
        </mxCell>
        <mxCell id="2bjuvnZJrYzHLu6adjYs-191" value="任务信息&lt;br&gt;账单信息&lt;br&gt;（罚款信息）" style="rounded=0;whiteSpace=wrap;html=1;fontSize=12;fillColor=#60a917;fontColor=#ffffff;strokeColor=#2D7600;" vertex="1" parent="1">
          <mxGeometry x="372.75" y="275" width="93" height="50" as="geometry" />
        </mxCell>
        <mxCell id="2bjuvnZJrYzHLu6adjYs-192" value="时效信息&lt;br&gt;（分段线路信息）" style="rounded=0;whiteSpace=wrap;html=1;fontSize=12;" vertex="1" parent="1">
          <mxGeometry x="485.75" y="280" width="110" height="40" as="geometry" />
        </mxCell>
        <mxCell id="2bjuvnZJrYzHLu6adjYs-193" value="申诉记录" style="rounded=0;whiteSpace=wrap;html=1;fontSize=12;fillColor=#60a917;fontColor=#ffffff;strokeColor=#2D7600;" vertex="1" parent="1">
          <mxGeometry x="617.25" y="280" width="110" height="40" as="geometry" />
        </mxCell>
        <mxCell id="2bjuvnZJrYzHLu6adjYs-194" value="时效信息&lt;br&gt;（分段线路信息）" style="rounded=0;whiteSpace=wrap;html=1;fontSize=12;fillColor=#60a917;fontColor=#ffffff;strokeColor=#2D7600;" vertex="1" parent="1">
          <mxGeometry x="75.75" y="280" width="110" height="40" as="geometry" />
        </mxCell>
        <mxCell id="2bjuvnZJrYzHLu6adjYs-195" value="时效信息&lt;br&gt;（分段线路信息）" style="rounded=0;whiteSpace=wrap;html=1;fontSize=12;fillColor=#60a917;fontColor=#ffffff;strokeColor=#2D7600;" vertex="1" parent="1">
          <mxGeometry x="485.75" y="280" width="110" height="40" as="geometry" />
        </mxCell>
        <mxCell id="2bjuvnZJrYzHLu6adjYs-196" value="更新人工减免时长" style="rounded=0;whiteSpace=wrap;html=1;fontSize=12;" vertex="1" parent="1">
          <mxGeometry x="442.75" y="340" width="100" height="42.5" as="geometry" />
        </mxCell>
        <mxCell id="2bjuvnZJrYzHLu6adjYs-198" value="任务信息&lt;br&gt;账单信息&lt;br&gt;（罚款信息）" style="rounded=0;whiteSpace=wrap;html=1;fontSize=12;fillColor=#60a917;fontColor=#ffffff;strokeColor=#2D7600;" vertex="1" parent="1">
          <mxGeometry x="-37.25" y="439.38" width="93" height="50" as="geometry" />
        </mxCell>
        <mxCell id="2bjuvnZJrYzHLu6adjYs-199" value="申诉记录" style="rounded=0;whiteSpace=wrap;html=1;fontSize=12;fillColor=#60a917;fontColor=#ffffff;strokeColor=#2D7600;" vertex="1" parent="1">
          <mxGeometry x="207.25" y="444.38" width="110" height="40" as="geometry" />
        </mxCell>
        <mxCell id="2bjuvnZJrYzHLu6adjYs-200" value="时效信息&lt;br&gt;（分段线路信息）" style="rounded=0;whiteSpace=wrap;html=1;fontSize=12;fillColor=#60a917;fontColor=#ffffff;strokeColor=#2D7600;" vertex="1" parent="1">
          <mxGeometry x="75.75" y="444.38" width="110" height="40" as="geometry" />
        </mxCell>
        <mxCell id="2bjuvnZJrYzHLu6adjYs-201" value="确认提交" style="rounded=0;whiteSpace=wrap;html=1;fontSize=12;fillColor=#60a917;fontColor=#ffffff;strokeColor=#2D7600;" vertex="1" parent="1">
          <mxGeometry x="-37.25" y="515.63" width="60" height="35" as="geometry" />
        </mxCell>
        <mxCell id="2bjuvnZJrYzHLu6adjYs-202" value="业务异常类型下拉" style="rounded=0;whiteSpace=wrap;html=1;fontSize=12;fillColor=#60a917;strokeColor=#2D7600;fontColor=#FFFFFF;" vertex="1" parent="1">
          <mxGeometry x="39.75" y="510.63" width="63" height="40" as="geometry" />
        </mxCell>
        <mxCell id="2bjuvnZJrYzHLu6adjYs-203" value="&lt;font style=&quot;font-size: 17px&quot;&gt;&lt;i&gt;&lt;b&gt;详情&lt;/b&gt;&lt;/i&gt;&lt;/font&gt;" style="text;html=1;strokeColor=none;fillColor=none;align=center;verticalAlign=middle;whiteSpace=wrap;rounded=0;fontSize=19;" vertex="1" parent="1">
          <mxGeometry x="522.75" y="480" width="60" height="30" as="geometry" />
        </mxCell>
        <mxCell id="2bjuvnZJrYzHLu6adjYs-204" value="任务信息&lt;br&gt;账单信息&lt;br&gt;（罚款信息）" style="rounded=0;whiteSpace=wrap;html=1;fontSize=12;fillColor=#60a917;fontColor=#ffffff;strokeColor=#2D7600;" vertex="1" parent="1">
          <mxGeometry x="372.75" y="275" width="93" height="50" as="geometry" />
        </mxCell>
        <mxCell id="2bjuvnZJrYzHLu6adjYs-205" value="时效信息&lt;br&gt;（分段线路信息）" style="rounded=0;whiteSpace=wrap;html=1;fontSize=12;fillColor=#60a917;fontColor=#ffffff;strokeColor=#2D7600;" vertex="1" parent="1">
          <mxGeometry x="485.75" y="280" width="110" height="40" as="geometry" />
        </mxCell>
        <mxCell id="2bjuvnZJrYzHLu6adjYs-206" value="申诉记录" style="rounded=0;whiteSpace=wrap;html=1;fontSize=12;fillColor=#60a917;fontColor=#ffffff;strokeColor=#2D7600;" vertex="1" parent="1">
          <mxGeometry x="625" y="523.75" width="110" height="40" as="geometry" />
        </mxCell>
        <mxCell id="2bjuvnZJrYzHLu6adjYs-207" value="任务信息&lt;br&gt;账单信息&lt;br&gt;（罚款信息）" style="rounded=0;whiteSpace=wrap;html=1;fontSize=12;fillColor=#60a917;fontColor=#ffffff;strokeColor=#2D7600;" vertex="1" parent="1">
          <mxGeometry x="380.5" y="518.75" width="93" height="50" as="geometry" />
        </mxCell>
        <mxCell id="2bjuvnZJrYzHLu6adjYs-208" value="时效信息&lt;br&gt;（分段线路信息）" style="rounded=0;whiteSpace=wrap;html=1;fontSize=12;fillColor=#60a917;fontColor=#ffffff;strokeColor=#2D7600;" vertex="1" parent="1">
          <mxGeometry x="493.5" y="523.75" width="110" height="40" as="geometry" />
        </mxCell>
        <mxCell id="2bjuvnZJrYzHLu6adjYs-209" value="批量调整" style="rounded=0;whiteSpace=wrap;html=1;fontSize=12;" vertex="1" parent="1">
          <mxGeometry x="-173" y="685" width="67" height="40" as="geometry" />
        </mxCell>
        <mxCell id="2bjuvnZJrYzHLu6adjYs-210" value="更新人工减免时长" style="rounded=0;whiteSpace=wrap;html=1;fontSize=12;" vertex="1" parent="1">
          <mxGeometry x="-424.5" y="748.75" width="100" height="42.5" as="geometry" />
        </mxCell>
        <mxCell id="2bjuvnZJrYzHLu6adjYs-211" value="&lt;font color=&quot;#000000&quot;&gt;&lt;span style=&quot;font-size: 12px&quot;&gt;车辆缓行事件&lt;br&gt;停留事件&lt;br&gt;上报记录&lt;br&gt;离线事件&lt;br&gt;司机行为&lt;br&gt;&lt;/span&gt;&lt;/font&gt;" style="text;html=1;strokeColor=none;fillColor=none;align=left;verticalAlign=middle;whiteSpace=wrap;rounded=0;fontSize=18;fontColor=#FFFFFF;" vertex="1" parent="1">
          <mxGeometry x="-183" y="1075" width="106" height="120" as="geometry" />
        </mxCell>
      </root>
    </mxGraphModel>
  </diagram>
</mxfile>
